<svg width="24" height="24" viewBox="0 0 24 24" fill="none" xmlns="http://www.w3.org/2000/svg">
<path d="M12 5C9.85567 5 8.11111 6.77079 8.11111 8.94737C8.11111 11.1239 9.85567 12.8947 12 12.8947C14.1443 12.8947 15.8889 11.1239 15.8889 8.94737C15.8889 6.77079 14.1443 5 12 5ZM12 11.3158C10.7136 11.3158 9.66667 10.2532 9.66667 8.94737C9.66667 7.64158 10.7136 6.57895 12 6.57895C13.2864 6.57895 14.3333 7.64158 14.3333 8.94737C14.3333 10.2532 13.2864 11.3158 12 11.3158ZM18.5 19.5L19 19C19 15.9534 16.557 13.6842 13.5556 13.6842H10.4444C7.44222 13.6842 5 15.9534 5 19L6 20L6.55556 20V19.2105C6.55556 17.0339 8.30011 15.2632 10.4444 15.2632H13.5556C15.6999 15.2632 17.4444 17.0339 17.4444 19.2105V20L18.5 19.5Z" fill="#6F7D97"/>
<path d="M21.2 12C21.2 17.081 17.081 21.2 12 21.2C6.91898 21.2 2.8 17.081 2.8 12C2.8 6.91898 6.91898 2.8 12 2.8C17.081 2.8 21.2 6.91898 21.2 12Z" stroke="#6F7D97" stroke-width="1.6"/>
</svg>
