<svg width="24" height="24" viewBox="0 0 24 24" fill="none" xmlns="http://www.w3.org/2000/svg">
<path d="M18.505 8.73079C19.0425 8.00853 19.3385 7.11493 19.3385 6.21462C19.3385 3.89067 17.448 2 15.124 2H8.21466C5.89067 2 4 3.89067 4 6.21462C4 7.11493 4.29602 8.00853 4.83352 8.73079L6.16789 10.5238C4.9302 11.8883 4.25438 13.6348 4.25438 15.4956C4.25438 16.8215 4.60871 18.1228 5.2791 19.2589C5.92954 20.3611 6.85911 21.2818 7.96739 21.9215L8.10333 22H15.2351L15.3711 21.9215C16.4794 21.2818 17.409 20.3611 18.0594 19.2589C18.7298 18.1228 19.0841 16.8215 19.0841 15.4956C19.0841 13.6348 18.4083 11.8883 17.1706 10.5238L18.505 8.73079ZM8.21466 5.71094H15.124L15.5281 6.51536L13.7583 8.99259C13.0998 8.78126 12.398 8.66669 11.6694 8.66669C10.9407 8.66669 10.2389 8.78126 9.58044 8.99259L7.81059 6.51532L8.21466 5.71094ZM10.3683 17.1362L9.4181 15.8764L9.13028 16.1968V17.1362H7.87055V13.3352H9.13024V14.7144L10.3792 13.3352H11.7747L10.2543 15.0076L11.8507 17.1362H10.3683ZM13.9356 16.186C14.0931 16.186 14.2451 16.1588 14.4026 16.0937V15.1326H15.5157V16.7398C15.0542 17.0548 14.4189 17.2231 13.8596 17.2231C12.6324 17.2231 11.7364 16.4032 11.7364 15.2357C11.7364 14.0683 12.6324 13.2483 13.8867 13.2483C14.6361 13.2483 15.2388 13.509 15.6243 13.9814L14.8044 14.7036C14.5654 14.4267 14.2885 14.2855 13.9519 14.2855C13.3871 14.2855 13.0288 14.6493 13.0288 15.2357C13.0288 15.8058 13.3872 16.186 13.9356 16.186Z" fill="#3F699A"/>
</svg>
