<svg width="24" height="24" viewBox="0 0 24 24" fill="none" xmlns="http://www.w3.org/2000/svg">
<path d="M16.4586 3.89307C16.4039 4.01049 16.3654 4.13492 16.3458 4.26302C16.245 4.92538 16.3006 6.40374 16.3006 6.40374C16.3019 6.36135 16.2846 7.4123 16.2722 8.37943C16.2689 8.65083 15.9417 8.78547 15.7481 8.59515L9.56229 2.40938C8.95596 1.80305 8.04737 1.87512 7.57864 2.59316C7.20466 3.16613 7.39248 3.85924 7.91914 4.3859L12.5927 9.05117L11.8727 9.77456L5.55356 3.45546C4.97502 2.87691 4.13077 2.96156 3.71844 3.66833C3.4354 4.1532 3.61705 4.69434 4.07271 5.15001L10.2936 11.3709L9.57559 12.0921L4.51686 7.04164C4.01181 6.53659 3.32819 6.3293 2.80842 6.81915C2.26822 7.32824 2.45569 8.021 2.97689 8.5422L8.052 13.6323L7.34998 14.3371L4.01857 11.0057C3.49381 10.481 2.85329 10.3286 2.32568 10.8563C1.8008 11.3811 1.95313 12.0217 2.47789 12.5464L9.87418 19.9415C13.9397 23.4806 16.6021 21.844 18.849 19.597C20.7106 17.7354 21.2765 15.3227 20.6248 13.0221C20.5597 12.7448 20.3954 12.0068 20.2012 11.1323C19.925 9.88854 19.6841 8.76956 19.5104 7.97969C19.2813 6.93824 19.1569 6.07012 19.0193 5.01265C18.981 4.71845 18.9533 4.47862 18.9485 4.37272C18.9358 4.08292 18.8389 3.80344 18.6631 3.57299L18.6248 3.53465C17.8914 2.80129 16.8957 2.95266 16.4586 3.89307Z" fill="#FEC331"/>
</svg>
