<svg width="24" height="24" viewBox="0 0 24 24" fill="none" xmlns="http://www.w3.org/2000/svg">
<path d="M10.2422 12.375H13.7578V13.5469H10.2422V12.375Z" fill="#797979"/>
<path d="M18.2257 13.5469H14.9297V14.1328C14.9297 14.4566 14.6675 14.7188 14.3438 14.7188H9.65625C9.33246 14.7188 9.07031 14.4566 9.07031 14.1328V13.5469H5.77426C5.01666 13.5469 4.34665 13.0639 4.10678 12.3452L2 6.02383V18.8203C2 19.7896 2.78857 20.5781 3.75781 20.5781H20.2422C21.2114 20.5781 22 19.7896 22 18.8203V6.02429L19.8931 12.3452C19.6534 13.0639 18.9833 13.5469 18.2257 13.5469Z" fill="#B66233"/>
<path d="M14.3439 3H9.6564C8.68716 3 7.89859 3.78857 7.89859 4.75781V5.34375H3.0083L5.21823 11.9745C5.29834 12.2142 5.52203 12.375 5.77441 12.375H9.07046V11.7891C9.07046 11.4653 9.33261 11.2031 9.6564 11.2031H14.3439C14.6677 11.2031 14.9298 11.4653 14.9298 11.7891V12.375H18.2259C18.4783 12.375 18.702 12.2142 18.7821 11.9745L20.9922 5.34375H16.1017V4.75781C16.1017 3.78857 15.3131 3 14.3439 3ZM9.07046 5.34375V4.75781C9.07046 4.43448 9.33307 4.17187 9.6564 4.17187H14.3439C14.6672 4.17187 14.9298 4.43448 14.9298 4.75781V5.34375H9.07046Z" fill="#D38458"/>
</svg>
