<svg width="20" height="20" viewBox="0 0 20 20" fill="none" xmlns="http://www.w3.org/2000/svg">
<g opacity="0.6">
<path d="M15.871 6.16764C16.186 5.85264 16.3593 5.43431 16.3593 4.98931C16.3593 4.54431 16.186 4.12598 15.871 3.81098L14.5493 2.48931C14.2343 2.17431 13.816 2.00098 13.371 2.00098C12.926 2.00098 12.5077 2.17431 12.1935 2.48848L3.3335 11.321V15.0001H7.011L15.871 6.16764ZM13.371 3.66764L14.6935 4.98848L13.3685 6.30848L12.0468 4.98764L13.371 3.66764ZM5.00016 13.3335V12.0126L10.8668 6.16431L12.1885 7.48598L6.32266 13.3335H5.00016ZM3.3335 16.6668H16.6668V18.3335H3.3335V16.6668Z" fill="#6F7D97"/>
</g>
</svg>
