<svg width="24" height="24" viewBox="0 0 24 24" fill="none" xmlns="http://www.w3.org/2000/svg">
<path d="M12.3175 13.3655C12.3175 13.1145 12.1137 12.9115 11.863 12.9115C11.6124 12.9115 11.4086 13.1153 11.4086 13.3655C11.4082 14.0217 11.0163 14.6706 10.3052 15.1969C8.78444 16.3199 7.64619 17.5398 6.92196 18.8223C6.84239 18.9636 6.84367 19.1355 6.92579 19.2742C7.00664 19.4142 7.15642 19.4997 7.31812 19.4997H16.4088C16.5701 19.4997 16.7194 19.4142 16.8011 19.2742C16.8824 19.1355 16.8837 18.9636 16.8045 18.8223C16.0807 17.5398 14.942 16.3199 13.4217 15.1969C12.7098 14.6706 12.3179 14.0217 12.3175 13.3655Z" fill="#6F7D97"/>
<path d="M19.8167 20.1818H19.5448C19.2325 16.6445 17.1611 13.9289 15.551 12C17.1615 10.0716 19.2321 7.35552 19.5457 3.81822H19.8176C20.3197 3.81822 20.7265 3.411 20.7265 2.9089C20.7265 2.40679 20.3197 2 19.8176 2H3.9089C3.40679 2 3 2.40722 3 2.9089C3 3.411 3.40679 3.81822 3.9089 3.81822H4.1808C4.49355 7.35594 6.5641 10.072 8.17467 12C6.56453 13.9284 4.49355 16.6441 4.18038 20.1818H3.9089C3.40679 20.1818 3 20.5881 3 21.0903C3 21.5928 3.40679 22 3.9089 22H19.8176C20.3197 22 20.7265 21.5928 20.7265 21.0903C20.7265 20.5881 20.3193 20.1818 19.8167 20.1818ZM6.00285 20.1818C6.34454 16.9857 8.42232 14.5246 9.97502 12.6855L10.058 12.5872C10.3439 12.2489 10.3439 11.7536 10.058 11.4149L9.97545 11.317C8.42317 9.47755 6.34454 7.01638 6.00285 3.81992H17.7232C17.3815 7.01638 15.3029 9.47755 13.7506 11.317L13.6685 11.4149C13.3825 11.7532 13.3825 12.2485 13.6685 12.5872L13.7515 12.6855C15.3037 14.5246 17.3815 16.9857 17.7232 20.1818H6.00285Z" fill="#6F7D97"/>
<path d="M13 11C13 11.5523 12.5523 12 12 12C11.4477 12 11 11.5523 11 11C11 10.4477 11.4477 10 12 10C12.5523 10 13 10.4477 13 11Z" fill="#6F7D97"/>
</svg>
