<svg width="24" height="24" viewBox="0 0 24 24" fill="none" xmlns="http://www.w3.org/2000/svg">
<path d="M11.922 8.875C10.1988 8.875 8.79697 10.2769 8.79697 12C8.79697 13.7231 10.1988 15.125 11.922 15.125C13.6451 15.125 15.047 13.7231 15.047 12C15.047 10.2769 13.6451 8.875 11.922 8.875ZM11.922 13.5625C11.0604 13.5625 10.3595 12.8616 10.3595 12C10.3595 11.1384 11.0604 10.4375 11.922 10.4375C12.7835 10.4375 13.4845 11.1384 13.4845 12C13.4845 12.8616 12.7835 13.5625 11.922 13.5625Z" fill="#6F7D97"/>
<path d="M21.5377 14.3296L19.5147 12.7795C19.5716 12.2433 19.5681 11.724 19.5147 11.2206L21.5377 9.67047C21.8513 9.43016 21.9361 8.99352 21.7353 8.65324L19.7762 5.33379C19.5811 5.00309 19.1745 4.86324 18.8171 5.00398L16.4169 5.9493C15.9786 5.63559 15.5094 5.36977 15.0144 5.15473L14.6541 2.66918C14.5984 2.285 14.2691 2 13.881 2H9.96283C9.57467 2 9.24537 2.285 9.1897 2.66922L8.82939 5.15477C8.33443 5.36984 7.86525 5.63562 7.42689 5.94934L5.0267 5.00402C4.66927 4.86324 4.26275 5.00313 4.06759 5.33383L2.10849 8.65324C1.90767 8.99352 1.99252 9.43016 2.30611 9.67047L4.32912 11.2205C4.27224 11.7567 4.27572 12.276 4.32912 12.7794L2.30615 14.3295C1.99252 14.5698 1.90767 15.0065 2.10853 15.3468L4.06756 18.6662C4.26271 18.9969 4.66927 19.1368 5.02666 18.996L7.42689 18.0507C7.86517 18.3644 8.33439 18.6302 8.82935 18.8453L9.18966 21.3308C9.24537 21.715 9.57467 22 9.96283 22H13.881C14.2691 22 14.5984 21.715 14.6541 21.3309L15.0144 18.8453C15.5094 18.6303 15.9786 18.3645 16.4169 18.0508L18.8171 18.9961C19.1745 19.1368 19.5811 18.9969 19.7762 18.6663L21.7353 15.3468C21.9361 15.0065 21.8513 14.5699 21.5377 14.3296ZM18.7694 17.2979L16.5801 16.4357C16.3178 16.3324 16.0204 16.3784 15.8016 16.5559C15.2733 16.9845 14.6804 17.3198 14.0393 17.5525C13.7687 17.6508 13.5741 17.8899 13.5328 18.1748L13.2048 20.4375H10.639L10.311 18.1748C10.2697 17.8899 10.0751 17.6508 9.80447 17.5525C9.16338 17.3198 8.57045 16.9845 8.0422 16.5559C7.82338 16.3784 7.52588 16.3324 7.26369 16.4357L5.07435 17.2979L3.80595 15.1487L5.64033 13.7431C5.87088 13.5664 5.98443 13.2764 5.93506 12.9902C5.82006 12.3232 5.82384 11.6548 5.93506 11.0098C5.98443 10.7235 5.87088 10.4335 5.64033 10.2569L3.80595 8.85125L5.07435 6.70207L7.26369 7.5643C7.52599 7.66762 7.82338 7.6216 8.0422 7.4441C8.57049 7.01551 9.16342 6.6802 9.80447 6.44746C10.0751 6.34922 10.2697 6.11012 10.311 5.8252L10.639 3.5625H13.2048L13.5328 5.8252C13.5741 6.11012 13.7687 6.34922 14.0393 6.44746C14.6804 6.6802 15.2733 7.01551 15.8016 7.4441C16.0204 7.62164 16.3179 7.66758 16.5801 7.5643L18.7694 6.70207L20.0378 8.85125L18.2034 10.2569C17.9729 10.4336 17.8593 10.7235 17.9087 11.0098C18.0237 11.6768 18.0199 12.3452 17.9087 12.9902C17.8593 13.2764 17.9729 13.5664 18.2034 13.7431L20.0378 15.1487L18.7694 17.2979Z" fill="#6F7D97"/>
</svg>
