<svg width="20" height="20" viewBox="0 0 20 20" fill="none" xmlns="http://www.w3.org/2000/svg">
<g opacity="0.6">
<path d="M14.1701 16.6668L14.1693 6.66683H13.3359H6.66927H5.83594V16.6668H14.1701ZM10.8359 8.3335H12.5026V15.0002H10.8359V8.3335ZM7.5026 8.3335H9.16927V15.0002H7.5026V8.3335ZM7.5026 3.3335H12.5026V5.00016H7.5026V3.3335Z" fill="white"/>
<path d="M4.16911 16.6665C4.16911 17.5857 4.91661 18.3332 5.83577 18.3332H14.1691C15.0883 18.3332 15.8358 17.5857 15.8358 16.6665V6.6665H17.5024V4.99984H15.0024H14.1691V3.33317C14.1691 2.414 13.4216 1.6665 12.5024 1.6665H7.50244C6.58327 1.6665 5.83577 2.414 5.83577 3.33317V4.99984H5.00244H2.50244V6.6665H4.16911V16.6665ZM7.50244 3.33317H12.5024V4.99984H7.50244V3.33317ZM6.66911 6.6665H13.3358H14.1691L14.1699 16.6665H5.83577V6.6665H6.66911Z" fill="#E44233"/>
<path d="M7.50244 8.3335H9.16911V15.0002H7.50244V8.3335ZM10.8358 8.3335H12.5024V15.0002H10.8358V8.3335Z" fill="#E44233"/>
</g>
</svg>
