<svg width="16" height="16" viewBox="0 0 16 16" fill="none" xmlns="http://www.w3.org/2000/svg">
<path d="M3.80317 2.4735L2.86317 1.52683C0.666504 3.70883 0.666504 5.29016 0.666504 7.3335H1.33317L1.99984 7.2915C1.99984 5.3395 1.99984 4.26416 3.80317 2.4735ZM13.1358 1.52683L12.1972 2.4735C13.9998 4.26416 13.9998 5.3395 13.9998 7.3335L15.3332 7.2915C15.3332 5.29016 15.3332 3.70883 13.1358 1.52683ZM7.99984 14.6668C8.87384 14.6668 9.6045 14.1108 9.8785 13.3335H6.12117C6.39517 14.1108 7.12584 14.6668 7.99984 14.6668ZM12.6665 9.72416V6.66683C12.6665 4.52216 11.2098 2.7155 9.2365 2.17216C9.04117 1.68016 8.56384 1.3335 7.99984 1.3335C7.43584 1.3335 6.9585 1.68016 6.76317 2.17216C4.78917 2.7155 3.33317 4.52216 3.33317 6.66683V9.72416L2.19517 10.8622C2.06984 10.9868 1.99984 11.1562 1.99984 11.3335V12.0002C1.99984 12.3688 2.2985 12.6668 2.6665 12.6668H13.3332C13.7018 12.6668 13.9998 12.3688 13.9998 12.0002V11.3335C13.9998 11.1562 13.9298 10.9868 13.8045 10.8622L12.6665 9.72416Z" fill="#E44233"/>
</svg>
