<svg width="857" height="710" viewBox="0 0 857 710" fill="none" xmlns="http://www.w3.org/2000/svg">
<g clip-path="url(#clip0_17754_31327)">
<path fill-rule="evenodd" clip-rule="evenodd" d="M245.681 49.0479C277.013 49.6161 308.808 55.9839 333.602 75.1595C357.97 94.0062 376.109 122.067 379.672 152.677C382.946 180.811 360.848 203.898 351.706 230.704C342.761 256.933 346.832 288.788 326.745 307.87C305.828 327.741 273.995 336.931 245.681 331.426C218.977 326.234 205.461 297.805 184.675 280.247C165.972 264.449 142.644 254.844 130.114 233.806C115.207 208.778 103.475 180.254 107.973 151.469C112.86 120.199 130.026 90.81 155.413 71.928C180.949 52.9356 213.867 48.4709 245.681 49.0479Z" fill="#F0F0F0"/>
<path fill-rule="evenodd" clip-rule="evenodd" d="M530.694 187.655C596.244 223.682 689.227 197.818 739.555 253.117C793.895 312.825 824.423 405.504 798.265 481.655C772.459 556.786 681.039 581.222 612.828 622.053C560.804 653.194 508.642 678.875 449.103 690.664C385.708 703.216 315.266 725.381 259.872 691.939C204.915 658.76 192.939 586.195 174.418 524.831C158.681 472.688 152.195 419.651 161.515 366.056C170.881 312.199 198.663 266.807 227.377 220.309C266.912 156.287 285.089 52.6111 360.059 44.5402C435.655 36.402 463.997 150.997 530.694 187.655Z" fill="#ABE5FF"/>
<path d="M410.126 514.321C420.71 514.321 429.29 505.752 429.29 495.181C429.29 484.61 420.71 476.041 410.126 476.041C399.542 476.041 390.962 484.61 390.962 495.181C390.962 505.752 399.542 514.321 410.126 514.321Z" fill="#C9C9C9"/>
<path d="M478.339 95.7825V261.485H575.364V95.7825H478.339ZM573.756 153.738H526.181V97.3886H573.756V153.738ZM524.573 97.3886V153.738H479.813V97.3886H524.573ZM479.813 155.21H524.573V260.012H479.813V155.21ZM526.181 260.012V155.21H573.756V260.012H526.181Z" fill="white"/>
<path d="M418.837 478.182C417.765 479.789 413.209 486.481 407.848 489.961C403.426 492.772 394.715 494.512 390.962 495.181C390.962 498.661 391.901 502.007 393.509 504.818L425.672 484.339C424.064 481.662 421.651 479.655 418.837 478.182Z" fill="white"/>
<path d="M402.353 512.581C404.498 513.518 406.91 514.053 409.322 514.187V585.795C396.189 585.795 219.024 585.661 156.708 585.795C156.038 585.795 154.296 585.795 154.028 585.661C154.028 585.661 154.028 585.527 154.028 585.394C154.028 584.323 155.1 582.449 156.038 580.575C157.914 577.095 160.059 573.213 158.584 570.135C157.646 568.127 155.234 566.789 151.348 566.253C136.874 563.978 117.979 572.812 104.711 580.575L104.041 580.977C99.2168 583.787 88.0937 590.346 82.5992 586.464C81.259 585.527 82.7332 582.717 83.5372 580.977C83.8053 580.441 83.9393 580.04 84.0733 579.772C85.0114 577.497 85.8155 572.946 83.2692 570.269C80.723 567.592 75.7645 567.458 68.5278 569.867C64.7755 571.072 60.085 573.883 55.5286 576.426C50.9722 579.103 46.4157 581.78 43.0654 582.717C33.0145 585.795 0.449361 587.134 0.181335 587.134V588.606C1.52146 588.606 33.2825 587.133 43.4674 584.189C46.9518 583.118 51.5082 580.441 56.3327 577.764C60.7551 575.221 65.4455 572.41 69.0639 571.34C75.6305 569.198 80.1869 569.198 82.1971 571.34C84.2073 573.481 83.4032 577.497 82.7332 579.237C82.5992 579.504 82.4651 579.906 82.1971 580.441C81.125 582.717 79.3829 586.197 81.7951 587.803C88.2277 592.354 99.4848 585.661 104.979 582.449L105.649 582.047C116.37 575.757 136.606 565.584 151.348 567.86C154.698 568.395 156.708 569.332 157.512 570.938C158.718 573.347 156.708 576.827 155.1 579.906C153.894 582.047 152.822 583.921 152.822 585.527C152.822 585.929 152.822 586.464 153.224 587C153.76 587.669 154.832 587.669 156.976 587.669C221.436 587.535 408.518 587.669 410.394 587.669H411.198V514.187C420.981 513.786 428.888 506.156 429.424 496.385C426.342 496.787 418.837 498.259 414.549 500.936C409.456 504.149 404.096 510.439 402.353 512.581Z" fill="white"/>
<path d="M394.447 506.022C396.189 508.432 398.333 510.439 400.879 511.912C402.354 510.038 408.116 503.212 413.343 499.732C418.033 496.653 426.074 495.315 429.156 494.913C429.156 491.433 428.218 488.355 426.61 485.544L394.447 506.022Z" fill="white"/>
<path d="M824.628 589.543L800.773 545.239H836.287V473.096H757.889C760.436 469.884 766.332 460.648 764.858 449.138C764.054 443.114 760.302 436.422 756.683 429.997C754.003 425.179 751.323 420.628 750.385 416.747C749.983 415.14 750.251 409.92 750.385 408.047L750.519 407.244H743.148C743.014 406.307 742.88 404.299 742.746 401.622C743.282 401.756 744.086 401.756 745.024 401.756C747.436 401.756 750.653 401.22 753.467 398.811C755.879 396.67 759.363 391.583 759.095 388.103C758.961 385.025 757.621 381.947 756.549 379.136C755.611 376.86 754.673 374.719 754.673 373.113C754.673 368.562 756.817 365.617 758.425 363.342L758.961 362.673C760.972 359.862 764.188 352.634 763.384 348.485C763.116 347.28 762.58 346.477 761.776 345.942C759.9 344.737 757.621 344.469 755.477 345.406C752.529 346.611 748.508 350.493 746.364 361.602C744.756 369.633 743.014 383.954 741.942 392.922C741.138 381.813 740.2 367.491 740.2 360.799C740.2 349.823 743.148 332.289 744.086 327.203C744.22 327.203 744.354 327.337 744.354 327.337C748.642 329.345 752.931 330.817 756.415 331.219C757.353 331.352 758.157 331.352 758.827 331.352C761.24 331.352 762.848 330.683 763.518 329.345C764.322 327.605 763.25 325.329 760.436 322.652C757.889 320.243 754.137 317.7 749.849 315.692C741.808 311.811 732.427 309.803 730.551 313.551C728.943 317.031 735.241 322.519 742.478 326.4C741.674 330.951 738.457 349.288 738.457 360.799C738.457 365.483 738.994 374.05 739.53 382.616C736.983 370.971 732.829 353.169 729.881 343.265C725.592 328.943 719.964 324.526 716.077 323.322C713.263 322.385 710.315 322.92 708.171 324.794C707.099 325.597 706.562 326.936 706.428 328.676C706.026 334.029 710.717 342.596 714.201 346.209C716.747 348.886 719.294 351.563 719.964 358.39C720.232 360.665 719.83 362.405 719.294 364.546C718.758 366.956 718.222 369.633 718.356 373.514C718.624 378.199 723.582 386.23 726.932 388.773C732.561 392.788 738.457 394.528 740.468 394.93C740.602 397.071 741.406 406.44 741.406 407.511H732.159V408.314C732.159 412.196 732.159 420.227 731.891 421.967C731.355 425.045 728.809 429.194 726.262 433.477C722.51 439.768 718.356 446.728 717.82 453.421C717.283 461.318 722.912 470.151 725.19 473.23H686.595V545.373H720.5L700.8 589.677H650.679V61.3838L409.322 -0.185669V476.041C399.673 476.442 391.766 483.938 391.096 493.575C394.983 492.905 403.024 491.299 407.044 488.622C412.002 485.544 416.291 479.253 417.497 477.513C415.487 476.71 413.209 476.174 410.93 476.041V1.82203L649.607 62.5884V591.015H716.479C716.613 591.015 728.675 589.81 743.014 583.653C747.302 581.78 750.787 579.103 753.735 576.827C757.353 574.016 760.168 571.741 763.116 572.143C767.404 572.678 767.672 576.426 767.672 581.244C767.672 582.449 767.672 583.52 767.806 584.323C768.61 589.543 774.641 590.881 777.589 590.881H857.059V589.409H824.628V589.543ZM732.293 314.086C732.695 313.283 733.767 312.882 735.643 312.882C738.86 312.882 743.818 314.086 749.581 316.897C753.735 318.905 757.353 321.314 759.766 323.589C761.91 325.731 762.982 327.471 762.446 328.542C761.91 329.612 759.9 329.88 756.951 329.479C753.601 329.077 749.447 327.605 745.292 325.731C736.447 321.582 731.355 316.228 732.293 314.086ZM728.273 387.167C725.458 385.159 720.5 377.53 720.232 373.113C720.098 369.365 720.634 366.822 721.17 364.546C721.572 362.405 722.108 360.531 721.84 357.988C721.17 350.626 718.222 347.548 715.675 344.871C712.057 340.989 708.037 332.959 708.305 328.408C708.439 327.203 708.841 326.266 709.511 325.731C711.387 324.259 713.665 323.857 716.077 324.526C719.026 325.463 724.654 329.211 728.943 343.533C733.097 357.319 739.396 386.497 740.736 392.922C740.736 392.922 740.736 392.922 740.736 393.056C738.457 392.387 733.231 390.78 728.273 387.167ZM748.24 361.736C750.385 350.76 754.271 347.548 756.415 346.611C758.023 345.942 759.765 346.076 761.24 347.013C761.642 347.28 762.044 347.816 762.178 348.619C762.848 351.965 760.034 358.657 758.023 361.602L757.487 362.271C755.745 364.68 753.333 367.893 753.333 372.979C753.333 374.853 754.271 377.262 755.343 379.671C756.415 382.348 757.621 385.293 757.889 388.103C758.023 391.048 754.941 395.599 752.797 397.607C749.312 400.685 744.756 400.283 743.014 400.016C743.416 395.733 746.096 372.577 748.24 361.736ZM719.696 453.153C720.098 446.862 724.252 440.036 727.87 433.879C730.551 429.462 733.097 425.179 733.767 421.833C734.169 419.825 734.169 411.259 734.169 408.582H749.044C748.91 410.456 748.642 415.14 749.178 416.88C750.251 420.896 752.797 425.58 755.611 430.533C759.095 436.824 762.848 443.248 763.518 449.004C765.126 461.318 757.487 471.088 756.013 472.828H727.334C726.128 471.222 719.16 461.451 719.696 453.153ZM688.471 543.633V474.434H726.664H756.683H834.813V543.633H799.969H721.572H688.471ZM722.644 545.239H799.165L809.082 563.576L714.871 562.639L722.644 545.239ZM777.589 589.543C777.455 589.543 770.084 589.543 769.28 584.189C769.146 583.519 769.146 582.449 769.28 581.378C769.414 577.496 769.548 571.473 763.384 570.67C759.766 570.269 756.549 572.678 752.797 575.623C749.849 577.898 746.498 580.441 742.344 582.315C728.273 588.338 716.479 589.543 716.345 589.543H702.81L714.067 564.246L809.752 565.182L822.885 589.543H777.589Z" fill="white"/>
<path d="M327.44 543.767C327.44 543.767 326.1 556.75 327.172 560.632C327.976 563.041 329.719 567.458 330.523 569.733C331.595 572.544 333.337 576.961 333.873 581.378C334.141 584.055 332.533 592.22 332.533 592.22L209.643 635.988C209.643 635.988 206.829 616.446 215.808 601.723C221.57 592.22 238.59 577.898 245.157 568.261C247.033 565.45 249.713 555.679 249.713 555.679L327.44 543.767Z" fill="#03A0E8"/>
<path d="M505.409 325.329C505.409 325.329 509.832 319.708 510.636 317.432C514.522 307.394 524.975 287.986 524.975 287.986L627.227 318.905C627.227 318.905 619.588 330.148 605.383 336.171C598.816 338.982 584.477 339.517 577.776 342.06C573.89 343.533 563.437 350.626 563.437 350.626L531.81 344.871L505.409 325.329Z" fill="#03A0E8"/>
<path d="M249.713 544.436V555.68L323.42 544.436L250.919 540.019L249.713 544.436Z" fill="#000850"/>
<path d="M500.317 332.423L505.409 325.329L546.819 345.808H529.666L500.317 332.423Z" fill="#000850"/>
<path d="M386.272 266.437C386.272 266.437 394.045 272.995 396.055 275.539C398.601 278.885 403.024 286.916 406.106 290.128C408.518 292.537 411.6 293.876 417.229 297.757C423.259 301.906 429.558 306.323 433.042 309.803C437.465 314.086 443.897 322.786 450.598 331.754C458.907 342.997 471.102 350.627 471.102 350.627L495.224 330.951L579.652 355.311C579.652 355.311 556.468 390.513 535.83 400.819C512.378 412.598 504.739 418.621 484.235 420.495C461.989 422.636 437.197 421.03 406.776 408.582C399.137 405.504 382.922 397.473 369.654 387.836C351.161 374.184 336.955 359.059 336.955 359.059L333.739 544.303H241.404C241.404 544.303 241.002 505.621 243.28 467.876C245.425 432.407 248.775 395.331 251.321 372.577C258.96 303.914 291.123 241.006 291.123 241.006L355.047 247.163L386.272 266.437Z" fill="#E44233"/>
<path d="M496.564 394.796C491.472 394.796 479.143 394.26 474.854 389.308C466.948 380.207 454.082 366.554 439.341 351.831C435.857 348.351 432.238 345.273 429.022 342.596C426.476 340.454 424.198 338.58 422.455 336.84C420.445 334.833 418.569 331.219 416.693 327.605C414.951 324.393 413.343 321.046 411.6 319.306C407.714 315.023 402.085 311.543 396.591 308.197C391.23 304.851 386.004 301.639 383.19 298.025C381.18 295.348 379.169 291.332 377.159 287.049C374.211 280.892 370.995 273.932 366.706 270.318C365.098 268.98 362.284 267.508 359.067 265.768C356.521 264.429 353.573 262.823 351.027 261.083C344.326 256.666 338.697 251.714 338.563 251.58L339.502 250.643C339.502 250.643 345.13 255.595 351.697 260.012C354.243 261.618 357.191 263.225 359.737 264.563C363.088 266.303 365.902 267.909 367.51 269.382C372.067 273.263 375.283 280.357 378.365 286.514C380.375 290.663 382.252 294.679 384.128 297.222C386.808 300.568 391.767 303.78 397.127 306.992C402.622 310.472 408.384 313.953 412.404 318.369C414.147 320.243 415.889 323.589 417.631 327.069C419.373 330.549 421.249 334.163 423.125 335.903C424.868 337.643 427.012 339.383 429.558 341.525C432.774 344.202 436.393 347.28 440.011 350.76C454.752 365.483 467.618 379.136 475.524 388.237C480.081 393.591 495.894 393.324 498.039 393.19C499.915 391.45 514.656 377.797 521.625 371.239C531.006 362.271 541.995 344.336 542.129 344.202L543.335 344.871C543.201 345.005 532.212 363.208 522.563 372.176C515.192 379.136 498.977 394.127 498.843 394.26L498.709 394.394H498.441C498.575 394.796 497.771 394.796 496.564 394.796Z" fill="white"/>
<path d="M309.751 249.305C309.751 249.305 315.781 253.32 317.925 254.391C322.884 256.8 331.997 255.729 331.997 255.729L341.378 252.383C341.378 252.383 345.934 255.194 347.542 255.997C351.563 258.138 359.067 256.666 359.067 256.666C359.067 256.666 360.81 259.745 362.954 260.815C364.562 261.618 369.922 261.217 369.922 261.217C369.922 261.217 369.922 264.563 374.881 266.303C377.561 267.24 386.272 266.303 386.272 266.303C386.272 266.303 382.252 260.682 380.375 259.075C377.963 256.934 371.665 253.588 368.984 251.312C366.84 249.572 364.026 245.825 360.81 242.345C357.593 238.731 353.841 235.518 353.841 235.518L309.751 249.305Z" fill="#FDCB42"/>
<path d="M351.027 232.306L353.841 235.652C353.841 235.652 347.408 242.345 344.728 243.951C341.11 245.958 328.513 248.501 328.513 248.501L351.027 232.306Z" fill="#101147"/>
<path d="M296.349 145.306L290.051 155.344L282.144 142.227L284.02 139.818L296.349 145.306Z" fill="#101147"/>
<path d="M306.4 138.48C306.4 138.48 312.565 141.424 317.925 138.078C323.956 134.33 325.028 128.173 325.028 128.173C325.028 128.173 345.264 129.378 352.099 129.913C361.748 130.716 368.314 130.716 374.077 129.378C375.819 128.976 381.85 126.567 378.901 119.339C376.891 114.387 370.324 114.387 367.644 115.592C361.48 118.402 346.202 122.819 346.202 122.819C346.202 122.819 369.788 112.379 375.685 106.356C382.788 99.2624 380.241 91.767 376.757 89.4916C373.675 87.4839 367.912 85.4762 352.233 95.7824C344.594 100.735 322.214 116.127 322.214 116.127C322.214 116.127 316.853 109.97 310.823 108.766C306.4 107.829 301.576 110.372 301.576 110.372L306.4 138.48Z" fill="#000850"/>
<path d="M319.132 158.423L306.266 135.535C306.266 135.535 310.287 138.881 313.771 138.212C317.255 137.543 319.4 135.401 320.472 133.661C321.41 132.055 322.08 128.039 319.534 126.166C317.926 124.961 312.029 124.827 312.029 124.827C312.029 124.827 318.596 120.276 317.389 116.663C316.317 113.584 306.802 115.324 306.802 115.324C306.802 115.324 305.06 112.379 304.122 111.71C303.586 111.309 301.576 110.639 301.576 110.639C301.576 110.639 285.628 119.072 281.34 123.221C276.918 127.638 277.99 134.598 277.99 134.598C277.99 134.598 278.392 139.818 281.474 141.692C284.824 143.7 296.349 145.44 296.349 145.44L288.979 157.218L301.844 185.727L323.554 169.8L319.132 158.423Z" fill="#FFA79C"/>
<path d="M161.399 64.1946C161.399 64.1946 210.447 109.702 232.291 121.347C251.991 131.787 275.443 138.346 275.443 138.346C275.443 138.346 281.206 140.086 283.216 142.361C289.381 149.723 298.226 170.736 301.174 173.815C302.916 175.555 310.689 176.358 310.689 176.358C310.689 176.358 312.431 162.973 319.266 158.423C324.492 154.809 332.935 151.329 338.027 150.659C351.161 148.919 376.891 151.195 390.962 154.006C414.549 158.69 460.783 172.476 484.503 176.76C500.987 179.704 552.85 183.318 552.85 183.318L550.974 228.558C550.974 228.558 515.862 229.227 504.069 228.424C489.596 227.354 462.123 221.331 462.123 221.331C462.123 221.331 410.26 206.474 393.777 201.387C378.231 196.703 345.666 200.718 345.666 200.718L351.295 232.44C351.295 232.44 347.006 246.494 323.286 249.572C303.184 252.249 291.525 241.14 291.525 241.14L281.34 188.404C281.34 188.404 251.991 180.507 241.94 177.83C229.611 174.484 212.323 166.052 203.077 160.698C193.026 154.943 173.996 141.692 165.285 133.929C156.038 125.63 132.184 96.5855 132.184 96.5855L161.399 64.1946Z" fill="white"/>
<path d="M161.265 64.1946C161.265 64.1946 145.183 29.1268 135.668 20.9621C132.854 18.5529 129.906 20.1591 129.906 20.1591C129.906 20.1591 122.401 6.23901 118.381 7.57747C115.164 8.64825 116.772 21.2298 116.772 21.2298C116.772 21.2298 107.928 4.90054 101.093 7.44363C96.2685 9.31748 103.639 23.6391 103.639 23.6391C103.639 23.6391 96.9386 19.7575 95.4644 22.3006C93.9903 24.7098 97.3406 33.6776 97.3406 33.6776C97.3406 33.6776 91.578 33.276 91.578 36.4884C91.578 40.1022 102.835 52.6838 106.453 57.9038C113.02 67.5408 132.05 96.5855 132.05 96.5855L161.265 64.1946Z" fill="#FFA79C"/>
<path d="M161.265 64.1946L127.895 90.2947L132.05 96.5855L161.265 64.1946Z" fill="#000850"/>
<path d="M132.318 68.4777C132.184 68.21 128.968 61.7854 129.236 55.0931C129.236 53.7546 129.638 51.8808 130.04 50.0069C130.71 46.7946 131.514 43.0469 130.71 41.173C124.679 25.1114 129.102 20.0253 129.37 19.7576L130.308 20.6945C130.308 20.6945 126.287 25.513 131.916 40.6376C132.854 42.913 131.916 46.7946 131.246 50.2746C130.844 52.1484 130.442 53.8885 130.442 55.0931C130.174 61.3839 133.39 67.6747 133.39 67.8085L132.318 68.4777Z" fill="#5F000F"/>
<path d="M122.133 37.9607C120.659 35.2838 119.587 32.473 118.649 29.6622C117.711 26.8515 116.906 23.9068 116.37 20.8284C117.845 23.5053 118.917 26.3161 119.855 29.1269C120.927 32.0715 121.731 34.8822 122.133 37.9607Z" fill="#5F000F"/>
<path d="M103.639 23.7729C105.515 27.253 107.258 30.5991 109 34.0791C109.938 35.8192 110.876 37.5592 111.546 39.2992C112.35 41.0392 113.02 42.913 113.422 44.7869H113.288C112.082 43.1807 111.144 41.4407 110.206 39.7007C109.268 37.9607 108.598 36.2207 107.794 34.3468C106.587 31.0007 104.979 27.3868 103.639 23.7729Z" fill="#5F000F"/>
<path d="M97.3406 33.6776C99.2168 36.2207 101.093 38.8976 102.835 41.4407C103.773 42.7792 104.711 43.9838 105.515 45.4561C106.319 46.7946 106.989 48.2669 107.526 49.8731L107.392 50.0069C106.185 48.8023 105.247 47.5977 104.309 46.2592C103.371 44.9207 102.701 43.5823 101.897 42.11C100.289 39.2992 98.8147 36.6222 97.3406 33.6776Z" fill="#5F000F"/>
<path d="M125.175 40.6498L108.244 53.1257L109.039 54.2028L125.97 41.7269L125.175 40.6498Z" fill="#5F000F"/>
<path d="M552.582 183.318C552.582 183.318 589.033 170.87 601.496 172.209C605.115 172.61 606.053 175.823 606.053 175.823C606.053 175.823 621.33 171.673 623.072 175.555C624.547 178.633 614.228 186.129 614.228 186.129C614.228 186.129 632.185 181.31 635 188.003C637.01 192.821 621.598 197.372 621.598 197.372C621.598 197.372 628.969 199.647 628.299 202.324C627.495 205.135 618.784 208.749 618.784 208.749C618.784 208.749 622.938 212.631 620.66 214.772C617.98 217.315 601.094 217.717 594.93 218.787C583.405 220.661 556.736 227.755 556.736 227.755L552.582 183.318Z" fill="#FFA79C"/>
<path d="M552.582 183.318L556.87 227.621L550.706 228.558L552.582 183.318Z" fill="#000850"/>
<path d="M569.467 207.143L569.065 205.804C569.199 205.804 575.9 203.663 580.322 199.246C581.126 198.309 582.199 196.837 583.271 195.364C585.281 192.42 587.559 189.207 589.837 188.27C604.847 181.98 605.517 175.823 605.517 175.689L606.857 175.823C606.857 176.09 606.321 182.783 590.373 189.475C588.497 190.278 586.353 193.357 584.477 196.167C583.405 197.774 582.333 199.246 581.395 200.317C576.704 204.867 569.735 207.009 569.467 207.143Z" fill="#5F000F"/>
<path d="M598.548 193.49C601.094 191.75 603.775 190.412 606.455 189.074C609.135 187.869 611.949 186.664 614.898 185.861C612.352 187.601 609.671 188.94 606.991 190.278C604.311 191.617 601.496 192.687 598.548 193.49Z" fill="#5F000F"/>
<path d="M621.732 197.238C618.114 198.71 614.496 200.049 610.743 201.387C608.867 202.057 607.125 202.86 605.249 203.395C603.373 203.931 601.496 204.332 599.486 204.6V204.466C601.228 203.529 602.971 202.726 604.847 202.057C606.723 201.387 608.599 200.852 610.475 200.317C614.228 199.246 617.846 198.175 621.732 197.238Z" fill="#5F000F"/>
<path d="M618.784 208.749C615.702 209.552 612.619 210.355 609.537 211.024C607.929 211.426 606.455 211.827 604.847 212.095C603.239 212.363 601.63 212.497 600.022 212.363V212.229C601.496 211.56 603.105 211.158 604.579 210.757C606.187 210.355 607.661 210.221 609.269 209.954C612.485 209.552 615.568 209.017 618.784 208.749Z" fill="#5F000F"/>
<path d="M594.597 193.38L593.267 193.545L595.862 214.399L597.192 214.234L594.597 193.38Z" fill="#5F000F"/>
<path d="M296.751 128.843C293.669 128.843 292.061 127.103 292.061 127.103L292.999 126.166C292.999 126.166 294.339 127.504 296.751 127.504C300.102 127.504 301.576 123.489 301.576 123.489L302.782 123.89C302.916 124.158 301.174 128.843 296.751 128.843Z" fill="#5F000F"/>
<path d="M306.936 121.749C306.936 121.749 305.596 120.009 303.988 119.206C303.452 118.938 301.576 118.403 300.906 118.135L301.308 116.796C301.576 116.93 303.854 117.466 304.658 117.867C306.534 118.804 308.009 120.812 308.143 120.812L306.936 121.749Z" fill="#5F000F"/>
<path d="M293.803 123.489L288.845 119.875L298.628 114.655L299.164 115.859L291.257 120.009L294.607 122.418L293.803 123.489Z" fill="#5F000F"/>
<path d="M310.153 130.716C311.225 130.181 312.431 130.181 313.637 130.315C314.307 130.449 314.709 130.716 315.245 130.984C315.781 131.252 316.183 131.653 316.585 132.055C315.915 132.055 315.379 132.055 314.843 131.921C314.307 131.787 313.771 131.653 313.369 131.519C312.431 131.519 311.359 131.252 310.153 130.716Z" fill="#5F000F"/>
<path d="M319.132 158.423C317.657 159.627 316.451 160.966 315.379 162.572C314.307 164.044 313.503 165.784 312.967 167.524C312.431 169.264 311.895 171.004 311.627 172.878C311.493 173.815 311.359 174.752 311.359 175.555C311.225 176.492 311.359 177.295 311.359 178.232C311.761 181.846 313.637 185.058 315.915 187.869C317.121 189.341 318.327 190.68 319.668 191.884C321.008 193.089 322.482 194.294 323.956 195.364C320.606 193.624 317.523 191.349 314.977 188.538C312.431 185.727 310.421 182.247 309.885 178.366C309.751 177.429 309.751 176.358 309.885 175.421C310.019 174.484 310.019 173.547 310.153 172.61C310.421 170.737 310.957 168.863 311.761 167.123C313.369 163.509 315.781 160.296 319.132 158.423Z" fill="#6B6B6B"/>
<path d="M345.8 201.923C344.326 202.057 342.718 202.057 341.11 201.923C339.502 201.789 338.027 201.521 336.553 200.986C338.027 201.254 339.636 201.387 341.11 201.387C341.914 201.387 342.584 201.387 343.388 201.12C344.192 200.986 344.862 200.718 345.666 200.584L345.8 201.923Z" fill="#6B6B6B"/>
<path d="M281.072 188.404C280.268 187.735 279.866 187.066 279.464 186.263C279.062 185.46 278.794 184.657 278.526 183.72C278.392 182.783 278.392 181.98 278.392 181.177C278.392 180.373 278.526 179.437 278.928 178.5H279.062L279.866 183.452C280 184.255 280.268 185.058 280.536 185.861C280.67 186.798 280.938 187.601 281.072 188.404Z" fill="#6B6B6B"/>
<path d="M246.229 428.927L247.837 502.007C247.837 502.007 255.208 499.866 257.62 507.361C259.898 514.053 253.063 523.423 253.063 523.423C253.063 523.423 263.784 520.478 265.795 522.887C268.475 525.966 265.124 531.855 265.124 531.855C265.124 531.855 268.207 532.658 269.011 535.067C269.413 536.138 268.207 539.618 268.207 539.618C268.207 539.618 274.103 537.61 277.186 540.823C277.856 541.492 278.258 544.303 278.258 544.303H241.538C241.538 544.303 241.538 529.178 241.806 512.983C242.074 500.401 242.61 487.15 242.878 480.19C243.28 467.475 246.229 428.927 246.229 428.927Z" fill="#FDCB42"/>
<path d="M317.121 544.436H315.781C315.781 543.499 318.998 456.901 318.462 425.848C318.328 420.628 312.565 417.55 312.565 417.55L312.163 417.416V417.014C312.163 416.747 313.503 391.182 314.441 382.616C315.245 374.987 319.266 352.366 319.266 352.099L320.606 352.366C320.606 352.634 316.585 375.254 315.781 382.75C314.843 390.647 313.637 413.267 313.503 416.613C314.977 417.416 319.668 420.628 319.802 425.848C320.338 456.901 317.121 543.633 317.121 544.436Z" fill="white"/>
<path d="M336.955 359.193C336.955 359.193 323.554 345.406 319.4 340.588C313.771 334.163 298.226 313.819 298.226 313.819C298.226 313.819 311.761 338.58 316.585 346.611C321.544 354.91 336.553 379.403 336.553 379.403L336.955 359.193Z" fill="#000850"/>
<path d="M486.246 373.113C486.246 372.979 482.627 365.483 480.081 361.468C477.937 358.122 470.834 351.028 470.7 351.028L471.638 350.091C471.906 350.359 478.875 357.319 481.153 360.799C483.833 364.814 487.318 372.31 487.452 372.577L486.246 373.113Z" fill="#050000"/>
<path d="M516.8 303.78C516.8 303.78 519.615 297.891 520.553 296.017C521.625 294.009 524.841 288.12 524.841 288.12L543.469 293.742C543.469 293.742 537.974 299.765 532.346 302.174C526.181 304.583 516.8 303.78 516.8 303.78Z" fill="#E44233"/>
<path d="M610.207 333.762C610.207 333.762 612.485 332.423 614.898 330.817C616.908 329.479 618.918 327.739 620.124 326.668C621.196 325.731 621.732 325.196 623.206 323.723C625.351 321.448 627.093 319.039 627.093 319.039L607.661 313.149C607.661 313.149 606.723 319.976 607.259 323.857C607.929 329.077 610.207 333.762 610.207 333.762Z" fill="#E44233"/>
<path d="M627.227 318.905L630.979 313.819L526.583 281.294L524.975 287.986L627.227 318.905Z" fill="white"/>
<path d="M604.177 336.573L602.032 329.077L597.61 330.282L599.352 337.777C599.352 337.777 601.094 337.376 601.764 337.242C602.568 337.108 604.177 336.573 604.177 336.573Z" fill="white"/>
<path d="M596.672 338.446L594.93 331.085L590.373 332.022L591.982 339.249L595.198 338.714L596.672 338.446Z" fill="white"/>
<path d="M589.435 339.517L588.095 332.825L583.539 333.762L584.745 340.32L589.435 339.517Z" fill="white"/>
<path d="M592.652 361.334C590.373 361.334 587.693 360.665 584.879 358.122C581.528 355.177 580.858 348.485 580.322 344.603L580.188 343.399C580.188 343.131 580.054 342.73 580.054 342.462C574.292 341.525 565.715 340.053 562.767 336.037C560.354 332.825 559.684 328.943 560.623 325.463C561.293 323.188 562.633 321.448 564.241 320.779C567.859 319.44 571.478 320.779 575.096 325.062C577.91 328.274 580.322 336.439 581.126 341.391C582.065 341.525 582.869 341.659 583.673 341.793C586.889 342.462 594.26 344.871 597.074 347.414C601.496 351.162 601.898 354.24 601.496 356.114C600.96 358.657 598.682 360.263 596.806 360.799C595.868 360.933 594.394 361.334 592.652 361.334ZM581.528 342.596C581.528 342.863 581.528 342.997 581.662 343.131L581.797 344.336C582.199 348.083 582.869 354.374 585.817 357.051C589.703 360.531 593.322 360.13 596.672 359.326C597.878 358.925 599.888 357.72 600.29 355.713C600.826 353.571 599.486 350.894 596.404 348.351C593.858 346.21 587.157 343.8 583.539 343.131C582.869 342.863 582.199 342.73 581.528 342.596ZM564.777 321.983C563.571 322.385 562.499 323.857 561.963 325.731C561.561 327.203 560.891 331.085 563.839 335.234C566.385 338.714 574.292 340.186 579.786 340.99C578.848 335.903 576.436 328.542 574.158 325.731C570.807 321.983 567.859 320.779 564.777 321.983Z" fill="#050000"/>
<path d="M262.846 580.575C261.372 580.575 259.63 580.307 257.754 579.37C253.599 577.497 250.919 571.473 249.311 567.86L248.775 566.789C248.641 566.521 248.507 566.253 248.373 565.852C242.61 566.789 234.034 567.993 229.879 565.183C226.663 562.907 224.653 559.427 224.519 555.68C224.385 553.27 225.189 551.129 226.529 550.058C229.611 547.649 233.363 547.783 238.188 550.727C241.806 552.869 246.631 559.963 249.043 564.38C249.981 564.246 250.785 564.112 251.589 563.978C254.94 563.577 262.578 563.576 266.063 565.049C271.423 567.324 272.763 570.001 272.897 572.009C273.165 574.552 271.557 576.827 269.949 577.898C268.609 578.969 266.197 580.575 262.846 580.575ZM249.713 565.852C249.847 565.986 249.847 566.253 249.981 566.387L250.517 567.458C252.125 570.938 254.671 576.694 258.29 578.3C263.114 580.441 266.331 578.969 269.279 577.095C270.351 576.426 271.825 574.552 271.691 572.41C271.423 570.135 269.413 568.127 265.661 566.655C262.578 565.317 255.476 565.183 251.857 565.718C251.053 565.584 250.383 565.718 249.713 565.852ZM227.333 551.396C226.395 552.199 225.725 553.94 225.859 555.947C225.859 557.553 226.529 561.435 230.549 564.38C234.168 566.923 241.94 565.852 247.569 564.915C245.023 560.364 240.466 554.073 237.384 552.2C233.229 549.523 229.879 549.255 227.333 551.396Z" fill="#050000"/>
<path d="M328.646 564.647C328.646 564.647 317.523 571.34 312.163 579.638C306.132 588.74 304.256 602.392 304.256 602.392L332.533 592.354C332.533 592.354 334.141 584.189 333.873 581.512C333.605 577.095 328.646 564.647 328.646 564.647Z" fill="#E44233"/>
<path d="M212.189 609.486C212.189 609.486 222.106 612.966 226.529 616.714C230.147 619.658 234.57 627.287 234.57 627.287L209.643 635.988C209.643 635.988 209.241 632.508 209.241 628.894C209.241 626.083 209.509 623.406 209.643 621.131C209.777 618.855 210.313 615.911 210.983 613.501C211.519 611.092 212.189 609.486 212.189 609.486Z" fill="#E44233"/>
<path d="M223.313 592.22L230.147 597.975L234.436 594.094L227.065 588.07C227.065 588.07 225.457 589.677 224.921 590.212C224.653 590.881 223.313 592.22 223.313 592.22Z" fill="white"/>
<path d="M230.013 585.126L237.116 591.818L241.136 587.937L233.766 581.378L230.013 585.126Z" fill="white"/>
<path d="M237.116 577.764L244.621 585.26L248.775 581.11L240.734 573.883L237.116 577.764Z" fill="white"/>
<path d="M209.643 635.988L211.921 642.011L332.801 599.715L332.533 592.354L209.643 635.988Z" fill="white"/>
<path d="M290.587 154.407C291.793 156.816 292.999 159.092 294.339 161.501C295.545 163.776 296.886 166.186 298.36 168.327C299.03 169.398 299.834 170.469 300.638 171.54C301.04 172.075 301.442 172.61 301.844 173.012C302.246 173.413 302.782 173.815 303.184 174.083C305.328 175.421 308.009 175.957 310.555 176.09V176.224C309.215 176.492 307.875 176.492 306.534 176.358C305.194 176.224 303.854 175.823 302.514 175.153C301.844 174.752 301.308 174.35 300.772 173.815C300.236 173.28 299.968 172.744 299.566 172.209C298.762 171.138 298.092 169.933 297.422 168.729C294.741 164.312 292.597 159.36 290.587 154.407Z" fill="#6B6B6B"/>
<path d="M493.776 469.79C493.776 469.79 507.177 456.806 512.269 453.326C521.382 447.17 529.691 445.43 537.33 446.366C540.68 446.768 547.649 449.043 547.247 457.074C546.845 464.703 533.979 473.805 533.979 473.805L493.776 469.79Z" fill="#000850"/>
<path d="M596.563 546.617C598.038 549.027 600.316 554.381 601.254 557.191C602.862 561.742 602.46 569.104 602.46 569.104C602.46 569.104 610.635 565.891 613.449 566.025C616.933 566.293 616.799 569.639 616.129 570.71C613.851 574.458 608.222 580.213 602.192 586.236C597.904 590.385 595.491 595.204 591.069 599.888C586.378 604.841 577.4 608.588 577.4 608.588V619.564C577.4 619.564 577.4 623.579 573.379 625.587C568.421 628.13 565.204 623.713 565.204 623.713C565.204 623.713 561.452 616.753 557.03 609.793C553.947 604.975 548.051 598.55 546.577 595.739C544.7 592.125 542.422 582.087 542.422 582.087C542.422 582.087 514.816 552.239 502.754 543.405C490.559 534.571 462.015 526.674 462.015 526.674C462.015 526.674 455.18 524.533 455.18 519.179C455.18 514.494 462.819 511.55 462.819 511.55C462.819 511.55 459.2 507.668 458.53 504.054C458.128 502.047 457.994 495.89 457.994 495.89L471.261 487.19C471.261 487.19 478.23 475.01 484.395 470.86C489.621 467.246 505.703 468.585 505.703 468.585L549.257 498.834L554.081 502.983C554.081 502.983 572.575 518.108 578.204 523.73C583.028 529.084 592.677 540.327 596.563 546.617Z" fill="white"/>
<path d="M553.813 502.984C553.813 502.984 572.977 518.242 580.214 526.139C584.636 530.958 596.697 546.751 596.697 546.751C596.697 546.751 589.193 545.814 586.244 543.004C583.296 540.193 580.348 532.028 575.925 530.422C572.039 528.95 562.39 530.422 557.834 529.351C554.215 528.414 548.453 526.942 548.587 517.439C548.721 510.077 553.813 502.984 553.813 502.984Z" fill="#000850"/>
<path d="M505.435 468.719C505.435 468.719 510.795 488.662 522.052 498.031C526.743 501.913 539.206 507.401 546.175 501.913C550.865 498.299 555.823 489.197 540.412 476.883C533.443 471.262 505.435 468.719 505.435 468.719Z" fill="#E44233"/>
<path d="M492.972 474.876C496.456 474.876 501.146 479.828 499.94 488.127C498.466 498.299 492.703 500.173 489.755 500.173C486.137 500.173 480.776 497.094 483.323 492.945C486.003 488.662 487.745 481.033 487.745 481.033C487.745 481.033 489.621 474.876 492.972 474.876Z" fill="#E44233"/>
<path d="M493.776 488.796C493.106 488.127 492.033 487.323 491.631 487.056C490.827 486.788 488.817 486.654 488.013 486.654V485.316C488.281 485.316 490.961 485.316 492.167 485.851C492.972 486.119 494.446 487.591 494.714 487.859L493.776 488.796Z" fill="#5F000F"/>
<path d="M482.787 485.45C482.116 485.182 480.91 484.647 480.374 484.647C479.57 484.513 478.23 485.048 477.828 485.182L477.292 483.977C477.426 483.844 479.168 483.174 480.508 483.308C481.446 483.442 483.189 484.111 483.323 484.245L482.787 485.45Z" fill="black"/>
<path d="M476.622 490.268C476.622 490.268 474.344 489.733 473.272 489.465C472.2 489.197 470.189 489.465 469.385 489.599L469.117 488.261C469.251 488.261 471.931 487.859 473.406 488.127C474.478 488.394 476.756 488.93 476.89 488.93L476.622 490.268Z" fill="black"/>
<path d="M467.375 508.471C467.241 508.337 462.819 506.463 461.344 503.653C460.004 501.243 459.87 496.291 459.87 496.023H461.21C461.21 496.023 461.344 500.842 462.551 502.983C463.891 505.393 467.911 507.267 468.045 507.267L467.375 508.471Z" fill="black"/>
<path d="M491.765 515.297C491.631 515.297 480.508 513.825 476.756 513.424C473.272 513.022 461.613 512.219 461.479 512.219L462.551 511.684L462.015 511.014C462.149 511.014 473.272 511.684 476.89 512.085C480.642 512.487 491.765 513.959 491.899 513.959L491.765 515.297Z" fill="black"/>
<path d="M542.422 582.89L542.288 582.221L541.752 581.551C541.886 581.15 544.835 570.978 547.515 568.167C554.483 560.671 566.008 562.144 566.544 562.278L566.41 563.616C566.276 563.616 555.019 562.144 548.587 569.104C545.907 571.647 542.422 582.756 542.422 582.89Z" fill="black"/>
<path d="M577.4 609.659L574.049 606.581L574.987 605.644L578.07 608.455L577.4 608.722V609.659Z" fill="black"/>
<path d="M602.862 575.528L602.46 569.104L603.8 568.702L604.202 575.395L602.862 575.528Z" fill="black"/>
<path d="M457.86 496.024C457.86 496.024 465.097 496.827 467.643 493.882C472.601 488.26 466.973 485.851 466.973 485.851C466.973 485.851 458.262 484.379 456.52 487.056C452.634 492.811 457.86 496.024 457.86 496.024Z" fill="#000850"/>
<path d="M211.921 642.011C219.56 640.538 227.065 640.003 234.57 639.601C242.074 639.2 249.579 639.334 256.816 639.334C258.558 639.334 260.3 639.334 262.176 639.2L267.671 638.932C271.423 638.798 275.041 638.664 278.794 638.531C286.299 638.397 293.803 638.531 301.442 639.601C294.205 642.546 286.969 644.42 279.598 646.026C275.846 646.829 272.227 647.365 268.475 647.9C266.599 648.168 264.722 648.301 262.712 648.569C260.702 648.703 258.692 648.837 256.816 648.837C249.177 648.837 241.672 648.168 234.168 647.097C226.663 645.892 219.292 644.42 211.921 642.011Z" fill="#000850"/>
<path d="M561.914 636.318C564.327 635.248 566.739 634.846 569.151 634.445C571.563 634.177 573.976 634.043 576.254 634.043C578.398 634.043 580.81 633.909 583.222 634.043C585.635 634.177 588.047 634.579 590.593 635.382C588.315 636.854 586.037 637.791 583.759 638.46C581.346 639.129 579.068 639.665 576.388 639.665C573.842 639.665 571.429 639.397 569.151 638.862C566.605 638.46 564.193 637.657 561.914 636.318Z" fill="#000850"/>
<path d="M187.933 309.402C187.665 309.402 187.263 309.402 186.995 309.402C177.614 309 169.171 302.174 163.141 290.262C157.244 278.483 154.296 263.091 155.1 246.895C156.708 213.3 173.594 186.798 192.892 187.735C202.273 188.137 210.715 194.963 216.746 206.875C222.642 218.654 225.591 234.046 224.787 250.241C223.045 283.168 206.695 309.402 187.933 309.402ZM191.82 189.207C173.862 189.207 158.048 214.772 156.574 247.029C155.77 262.957 158.584 278.082 164.481 289.592C170.243 300.969 178.284 307.528 187.129 307.929C187.397 307.929 187.799 307.929 188.067 307.929C206.025 307.929 221.838 282.365 223.313 250.108C224.117 234.18 221.302 219.055 215.406 207.544C209.643 196.167 201.602 189.609 192.758 189.207C192.356 189.207 192.088 189.207 191.82 189.207Z" fill="white"/>
<path d="M140.895 221.197H101.093V181.444H140.895V221.197ZM102.567 219.724H139.287V183.051H102.567V219.724Z" fill="white"/>
<path d="M432.64 259.075C426.744 259.075 422.053 254.391 422.053 248.501C422.053 242.612 426.744 237.928 432.64 237.928C438.537 237.928 443.227 242.612 443.227 248.501C443.227 254.391 438.403 259.075 432.64 259.075ZM432.64 239.534C427.682 239.534 423.528 243.549 423.528 248.635C423.528 253.722 427.548 257.737 432.64 257.737C437.599 257.737 441.753 253.722 441.753 248.635C441.753 243.549 437.599 239.534 432.64 239.534Z" fill="white"/>
<path d="M438.805 272.326C438.805 268.98 435.991 266.169 432.64 266.169C429.29 266.169 426.476 268.98 426.476 272.326C426.476 274.601 427.682 276.475 429.424 277.546V285.042V285.309C429.424 285.443 430.362 287.451 432.506 287.451C433.981 287.451 435.187 285.711 435.321 285.443L435.455 285.309V277.68C437.465 276.609 438.805 274.601 438.805 272.326ZM434.115 284.908C433.712 285.443 433.176 285.978 432.64 285.978C431.702 285.978 431.166 285.175 431.032 284.908V278.215C431.568 278.349 432.104 278.483 432.64 278.483C433.176 278.483 433.578 278.349 434.115 278.349V284.908ZM432.64 276.877C430.094 276.877 427.95 274.735 427.95 272.192C427.95 269.649 430.094 267.508 432.64 267.508C435.187 267.508 437.331 269.649 437.331 272.192C437.331 274.735 435.187 276.877 432.64 276.877Z" fill="white"/>
<path d="M784.692 518.202H738.591V503.613H784.692V518.202ZM740.2 516.73H783.218V505.219H740.066V516.73H740.2Z" fill="white"/>
<path d="M638.564 52.2337C636.054 52.2337 633.653 52.8877 631.47 53.9777C631.034 52.9967 630.597 52.0157 630.16 51.1437C612.48 57.3567 562.496 75.1238 545.471 81.1188C549.727 101.72 567.953 117.198 589.889 117.198C611.171 117.198 628.96 102.592 633.871 82.9718C635.399 83.4078 636.927 83.7348 638.564 83.7348C647.295 83.7348 654.279 76.6498 654.279 68.0387C654.279 59.4277 647.186 52.2337 638.564 52.2337ZM638.564 81.1188C637.145 81.1188 635.726 80.9008 634.417 80.4648C634.962 77.7398 635.181 74.9058 635.181 71.9627C635.181 66.5127 634.198 61.2807 632.452 56.4847C634.308 55.5037 636.381 54.9587 638.564 54.9587C645.767 54.9587 651.66 60.8447 651.66 68.0387C651.66 75.2328 645.767 81.1188 638.564 81.1188Z" fill="#FDCB42"/>
<path d="M590.381 73.7861C613.979 65.8724 632.068 56.3575 630.782 52.5339C629.497 48.7103 609.324 52.0259 585.726 59.9396C562.127 67.8532 544.038 77.3682 545.324 81.1918C546.609 85.0154 566.782 81.6998 590.381 73.7861Z" fill="#041A13"/>
<path d="M632.031 66.2376L612.021 82.608L612.99 83.7885L632.999 67.4181L632.031 66.2376Z" fill="#188E6D"/>
<path d="M591.818 93.4387L591.448 94.9194L616.545 101.168L616.915 99.6878L591.818 93.4387Z" fill="#188E6D"/>
<path d="M576.746 86.2174L562.003 107.442L563.258 108.312L578.002 87.0873L576.746 86.2174Z" fill="#188E6D"/>
<path d="M192.736 455L100 522.438L102.209 525.467L194.944 458.03L192.736 455Z" fill="#03A0E8"/>
<path d="M193.988 404.103L201.842 394.086L130.185 344.845C129.943 344.724 129.822 344.603 129.581 344.483C129.339 344.362 129.097 344.241 128.856 344.121C128.131 343.759 127.285 343.638 126.318 343.638C122.814 343.638 119.914 346.534 119.914 350.034C119.914 352.086 120.88 353.896 122.33 354.983L122.572 355.103C122.693 355.224 122.814 355.224 122.935 355.345L193.988 404.103Z" fill="#E44233"/>
<path d="M198.096 405.551C201.633 405.551 204.501 402.687 204.501 399.155C204.501 395.622 201.633 392.758 198.096 392.758C194.559 392.758 191.692 395.622 191.692 399.155C191.692 402.687 194.559 405.551 198.096 405.551Z" fill="#020202"/>
<path d="M100.579 340.138C105.318 340.138 109.159 336.301 109.159 331.569C109.159 326.836 105.318 323 100.579 323C95.8412 323 92 326.836 92 331.569C92 336.301 95.8412 340.138 100.579 340.138Z" fill="#FDCB42"/>
</g>
<defs>
<clipPath id="clip0_17754_31327">
<rect width="857" height="710" fill="white"/>
</clipPath>
</defs>
</svg>
