<svg width="185" height="190" viewBox="0 0 185 190" fill="none" xmlns="http://www.w3.org/2000/svg">
<path d="M70.7982 156.176C68.9859 156.02 67.2049 155.5 65.6443 154.54C55.4569 148.801 47.143 140.376 41.3493 130.239C35.4805 119.913 32.5538 108.278 32.8375 96.46C33.1213 84.6417 36.5765 73.0956 42.8219 63.0741C49.0595 53.1438 57.7841 45.0793 68.1021 39.7219C71.0675 38.1403 74.5577 37.889 77.7572 38.8979C80.9567 39.9068 83.5859 42.2439 85.1558 45.2245C88.2721 51.4591 85.7952 59.0498 79.6753 62.2886C73.3664 65.6031 68.0198 70.4689 64.2104 76.5682C60.401 82.6676 58.2428 89.7349 58.0782 96.9732C57.9135 104.211 59.7658 111.347 63.3352 117.621C66.8217 123.795 71.9425 129.009 78.1259 132.477C84.128 135.929 86.2958 143.643 82.8488 149.774C81.2316 152.664 78.4833 154.907 75.218 155.729C73.8119 156.159 72.248 156.3 70.7982 156.176ZM65.8724 154.009C65.8724 154.009 65.963 154.017 65.8724 154.009C65.963 154.017 65.8724 154.009 65.8724 154.009Z" fill="#8CD8FB"/>
<path d="M92.3048 162.978C89.2239 162.714 86.2493 162.275 83.2076 161.555C74.701 159.632 66.796 156.016 59.666 150.814C57.0056 148.841 55.1639 145.837 54.6298 142.487C54.0958 139.136 54.9366 135.72 56.9085 132.951C61.0413 127.339 68.9076 126.086 74.4925 130.145C78.7886 133.268 83.616 135.518 88.809 136.698C94.002 137.878 99.281 138.056 104.563 137.132C111.334 135.877 117.877 140.477 119.111 147.377C119.735 150.735 118.977 154.25 117.013 156.928C115.132 159.704 112.053 161.551 108.803 162.191C103.422 163.198 97.8322 163.453 92.3048 162.978ZM108.956 161.469L108.865 161.461C108.858 161.553 108.956 161.469 108.956 161.469ZM104.863 137.892C104.773 137.884 104.773 137.884 104.863 137.892C104.773 137.884 104.773 137.884 104.863 137.892ZM74.0753 130.752C74.166 130.76 74.166 130.76 74.0753 130.752C74.166 130.76 74.166 130.76 74.0753 130.752Z" fill="#5FC8F8"/>
<path d="M106.431 162.171C104.256 161.984 102.128 161.251 100.319 159.994C97.5603 158.105 95.628 155.093 95.0939 151.742C93.8525 144.934 98.3431 138.342 105.213 137.004C112.724 135.629 119.6 132.088 125.069 126.865C130.537 121.642 134.492 114.913 136.402 107.549C138.166 100.815 144.999 96.7194 151.618 98.2971C154.924 99.1316 157.758 101.211 159.426 104.108C161.185 107.013 161.621 110.447 160.788 113.772C157.738 125.904 151.324 136.829 142.289 145.326C133.245 153.914 121.982 159.649 109.74 161.904C108.704 162.274 107.609 162.272 106.431 162.171Z" fill="#8CD8FB"/>
<path d="M148.3 119.953C147.847 119.914 147.484 119.883 147.039 119.753C140.215 118.433 135.763 111.809 136.992 104.937C138.342 97.7088 137.616 90.2104 135.016 83.2857C132.332 76.262 127.743 70.1765 121.827 65.7213C115.91 61.2662 108.849 58.457 101.419 57.8195L101.328 57.8117C93.9885 57.182 86.7486 58.5805 80.1679 61.8716C73.9652 65.0115 66.4273 62.4369 63.2204 56.1945C61.7412 53.2217 61.4946 49.712 62.501 46.4935C63.5074 43.2749 65.8339 40.6286 68.8821 39.1459C79.5547 33.9108 91.5253 31.633 103.486 32.6593C103.577 32.6671 103.577 32.6671 103.667 32.6748C115.81 33.7166 127.383 38.1981 137.067 45.5471C146.751 52.896 154.207 62.8078 158.607 74.2935C162.932 85.5892 164.075 97.8052 161.865 109.734C161.213 113.074 159.415 115.95 156.599 117.911C154.095 119.441 151.2 120.202 148.3 119.953Z" fill="#ABE5FF"/>
<path d="M100.301 99.9236C99.5232 100.696 98.2685 100.698 97.4881 99.9278L77.2987 80.0127C74.9624 77.7081 71.208 77.7081 68.8717 80.0127L63.4824 85.3288C61.1004 87.6784 61.1004 91.5223 63.4824 93.8719L94.6804 124.646C97.0209 126.955 100.783 126.95 103.118 124.635L167.036 61.2681C169.407 58.9167 169.403 55.0811 167.025 52.7356L161.637 47.4207C159.295 45.1112 155.531 45.1168 153.197 47.4333L100.301 99.9236Z" fill="#03A0E8" stroke="white" stroke-width="4"/>
</svg>
