<svg width="36" height="37" viewBox="0 0 36 37" fill="none" xmlns="http://www.w3.org/2000/svg">
<path d="M12.1981 34.5313C11.725 34.5313 11.2519 34.4354 10.8261 34.2198C8.05835 32.95 5.71642 30.9375 3.98954 28.4219C2.239 25.8583 1.2218 22.8875 1.03255 19.7969C0.843302 16.7063 1.48201 13.6156 2.87771 10.8604C4.27341 8.12917 6.35513 5.82918 8.90997 4.20001C9.6433 3.72084 10.5422 3.57709 11.3938 3.76876C12.2455 3.96042 12.9788 4.51147 13.4519 5.25417C14.3981 6.81147 13.925 8.84793 12.411 9.83022C10.8498 10.8365 9.57233 12.2261 8.72072 13.9031C7.86911 15.5802 7.46696 17.4729 7.58524 19.3656C7.70352 21.2583 8.34222 23.0792 9.40674 24.6365C10.4476 26.1698 11.8906 27.4156 13.5702 28.1823C15.2024 28.949 15.9358 30.9135 15.1788 32.5906C14.8239 33.3813 14.1616 34.0281 13.3336 34.3156C12.9788 34.4594 12.5766 34.5313 12.1981 34.5313ZM10.8734 34.0761C10.8734 34.0761 10.8971 34.0761 10.8734 34.0761C10.8971 34.0761 10.8734 34.0761 10.8734 34.0761Z" fill="#E2E2E2"/>
<path d="M17.9229 35.825C17.1186 35.825 16.3379 35.7771 15.5336 35.6573C13.2863 35.3458 11.1573 34.5791 9.19383 33.3812C8.4605 32.926 7.91641 32.1833 7.70351 31.3208C7.4906 30.4583 7.63254 29.5479 8.082 28.7812C9.02824 27.2239 11.039 26.7208 12.5766 27.6552C13.7594 28.3739 15.0605 28.8531 16.4325 29.0448C17.8046 29.2364 19.1766 29.1646 20.525 28.8052C22.2519 28.326 24.0497 29.3802 24.5229 31.1531C24.7594 32.0156 24.6411 32.95 24.1917 33.6927C23.7659 34.4593 23.0089 35.0104 22.1809 35.25C20.8089 35.6333 19.3659 35.825 17.9229 35.825ZM22.2046 35.0583H22.1809C22.1809 35.0823 22.2046 35.0583 22.2046 35.0583ZM20.6196 28.9968C20.596 28.9968 20.596 28.9968 20.6196 28.9968C20.596 28.9968 20.596 28.9968 20.6196 28.9968ZM12.482 27.8229C12.5057 27.8229 12.5057 27.8229 12.482 27.8229C12.5057 27.8229 12.5057 27.8229 12.482 27.8229Z" fill="#03A0E8"/>
<path d="M21.5659 35.2979C20.9981 35.2979 20.4304 35.1542 19.9336 34.8667C19.1766 34.4354 18.6089 33.6927 18.396 32.8302C17.9228 31.0812 18.94 29.2604 20.6906 28.7573C22.6067 28.2302 24.3099 27.1521 25.611 25.6667C26.9121 24.1812 27.7874 22.3365 28.1185 20.3719C28.4261 18.575 30.1056 17.3531 31.8562 17.6167C32.7315 17.7604 33.5121 18.2396 34.0089 18.9583C34.5293 19.6771 34.7185 20.5635 34.5766 21.45C34.0562 24.6844 32.6368 27.6792 30.4841 30.099C28.3314 32.5427 25.5401 34.2917 22.4175 35.1542C22.1573 35.274 21.8734 35.2979 21.5659 35.2979Z" fill="#E44233"/>
<path d="M31.4777 23.3427C31.3594 23.3427 31.2648 23.3427 31.1465 23.3188C29.3487 23.1271 28.0476 21.4979 28.2132 19.6771C28.4024 17.7604 28.0476 15.8198 27.2196 14.0709C26.368 12.2979 25.0433 10.8125 23.411 9.78232C21.7788 8.75211 19.8863 8.17711 17.9465 8.17711H17.9229C16.0067 8.17711 14.1616 8.70419 12.5293 9.71044C10.9917 10.6688 8.98093 10.1656 8.01104 8.60836C7.56158 7.86565 7.41964 6.95523 7.60889 6.09273C7.79814 5.23023 8.34222 4.48752 9.09921 4.03231C11.7487 2.42711 14.8003 1.56461 17.9229 1.56461C17.9465 1.56461 17.9465 1.56461 17.9702 1.56461C21.1401 1.56461 24.239 2.47502 26.9121 4.17606C29.5852 5.87711 31.7379 8.2969 33.1336 11.1959C34.5057 14.0469 35.0734 17.2094 34.7659 20.3719C34.6713 21.2584 34.2691 22.049 33.5831 22.624C32.968 23.0792 32.2347 23.3427 31.4777 23.3427Z" fill="#FDCB42"/>
</svg>
