<svg width="448" height="494" viewBox="0 0 448 494" fill="none" xmlns="http://www.w3.org/2000/svg">
<g clip-path="url(#clip0_17713_44041)">
<path fill-rule="evenodd" clip-rule="evenodd" d="M416.519 290.097C437.365 307.961 441.535 336.939 444.457 364.246C447.568 393.331 452.433 425.714 433.405 447.947C414.233 470.349 381.384 472.95 351.918 472.377C325.196 471.858 301.092 461.163 279.848 444.961C256.476 427.136 229.559 407.209 227.972 377.846C226.39 348.58 250.812 325.712 272.326 305.79C291.21 288.303 314.07 277.217 339.648 274.434C366.68 271.492 395.88 272.412 416.519 290.097Z" fill="#F0F0F0"/>
<path fill-rule="evenodd" clip-rule="evenodd" d="M219.586 44.6207C244.556 56.4499 269.425 70.3541 283.533 94.1155C297.084 116.941 289.097 145.051 294.63 171.016C302.631 208.562 342.086 246.343 323.078 279.7C304.765 311.838 254.083 297.53 217.978 305.533C185.551 312.721 153.675 335.793 122.574 324.146C91.5933 312.543 77.2871 277.574 63.2788 247.598C51.3114 221.989 47.4893 194.395 48.7406 166.151C49.9634 138.551 56.4595 112.121 70.3392 88.2329C85.8468 61.5429 102.618 31.0973 132.24 22.4413C161.8 13.8033 191.758 31.4373 219.586 44.6207Z" fill="#ABE5FF"/>
<path d="M1.91771 298.861L1.36206 298.154C1.63988 297.93 28.6068 275.638 40.616 266.832C91.8521 229.415 144.227 206.701 196.287 199.336C237.774 193.432 280.07 197.369 319.749 210.827C388.3 233.827 429.982 277.463 430.368 277.902L429.713 278.51C429.301 278.072 387.78 234.587 319.426 211.659C279.881 198.253 237.729 194.338 196.386 200.231C144.486 207.578 92.2554 230.229 41.1447 267.556C29.1445 276.363 2.18657 298.637 1.91771 298.861Z" fill="white"/>
<path d="M1.93563 276.443L1.36206 275.781C1.613 275.557 27.0026 252.933 64.4909 229.128C99.1025 207.158 151.423 179.648 204.057 173.419C271.103 165.49 329.051 182.323 365.859 197.841C405.731 214.657 430.081 233.638 430.323 233.782L429.767 234.489C429.534 234.301 405.256 215.418 365.482 198.692C328.783 183.218 271.013 166.474 204.165 174.35C151.665 180.507 99.4878 207.945 64.9928 229.871C27.5224 253.631 2.18657 276.219 1.93563 276.443Z" fill="white"/>
<path d="M1.94424 253.954L1.31689 253.318C1.56783 253.077 26.4107 229.218 63.9259 203.999C98.5823 180.731 151.494 151.467 206.737 144.379C261.458 137.295 317.083 143.622 368.807 162.814C407.478 177.267 430.054 194.065 430.278 194.235L429.74 194.951C429.516 194.781 407.021 178.046 368.457 163.629C316.878 144.498 261.41 138.192 206.844 145.256C151.781 152.326 99.0035 181.5 64.4278 204.724C26.9574 229.907 2.18622 253.721 1.94424 253.954Z" fill="white"/>
<path d="M1.94456 231.813L1.32617 231.16C21.5312 212.409 42.9036 194.953 65.3154 178.896C99.6043 154.303 150.159 123.58 196.278 116.877C266.182 106.756 326.067 117.817 363.995 128.869C405.095 140.853 430 155.431 430.251 155.574L429.794 156.344C429.543 156.201 404.7 141.667 363.708 129.72C325.87 118.694 266.138 107.669 196.404 117.763C150.473 124.44 100.052 155.091 65.8352 179.621C43.4546 195.652 22.1148 213.084 1.94456 231.813Z" fill="white"/>
<path d="M1.9446 210.111L1.36206 209.467C22.5461 189.993 45.0006 171.945 68.5776 155.44C104.973 129.926 159.148 97.8603 210.626 90.0297C278.218 79.7738 334.303 88.2399 369.47 97.1265C407.568 106.765 429.982 118.999 430.197 119.124L429.767 119.902C429.543 119.786 407.21 107.597 369.21 97.9856C334.142 89.1169 278.192 80.6867 210.761 90.9157C159.453 98.7195 105.403 130.713 69.0974 156.174C45.5451 172.653 23.1117 190.671 1.9446 210.111Z" fill="white"/>
<path d="M1.96226 334.613L1.29907 334.014C1.53209 333.763 24.4571 308.956 61.2464 283.092C95.2126 259.198 148.277 229.468 208.224 223.508C240.337 220.212 272.782 224.07 303.222 234.802C327.572 243.384 351.017 256.388 372.894 273.472C410.131 302.539 442.803 344.687 443 345L442.5 345.5C442.303 345.196 409.45 303.13 372.284 274.152C350.479 257.148 327.133 244.181 302.873 235.67C272.563 224.992 240.26 221.153 208.287 224.43C148.537 230.372 95.6159 260.021 61.7393 283.844C25.0575 309.636 2.18632 334.372 1.96226 334.613Z" fill="white"/>
<path d="M152.391 175.46H129.412V222.336H152.391V175.46Z" fill="#000850"/>
<path d="M156.487 450.891C205.491 450.891 245.211 447.652 245.211 443.651C245.211 439.651 205.482 436.411 156.487 436.411C107.491 436.411 67.762 439.651 67.762 443.651C67.762 447.652 107.482 450.891 156.487 450.891Z" fill="#000850"/>
<path d="M204.855 213.78C204.855 213.78 211.89 214.55 214.534 215.069C218.312 215.784 221.89 217.311 225.019 219.543L224.562 224.6L211.764 230.032L204.855 213.78Z" fill="#D56074"/>
<path d="M193.634 238.113C193.634 238.113 208.216 231.482 213.118 229.486C215.806 228.394 224.562 224.635 224.562 224.635L223.666 238.059L202.829 242.829L193.634 238.113Z" fill="#000850"/>
<path d="M289.376 410.915C289.376 410.915 290.577 414.495 290.9 415.613C291.222 416.732 291.679 419.435 291.679 419.435C291.679 419.435 300.794 419.793 303.698 418.96C306.232 418.191 308.392 416.515 309.765 414.253L308.34 411.363L307.247 408.4L289.376 410.915Z" fill="#FFA79C"/>
<path d="M228.855 432.25L201.216 323.758L190.829 325.235L218.612 434.63C218.942 435.706 219.608 436.649 220.512 437.32C221.417 437.991 222.512 438.356 223.639 438.362C224.326 438.366 225.006 438.234 225.641 437.973C226.276 437.713 226.853 437.329 227.339 436.845C227.824 436.361 228.209 435.785 228.471 435.152C228.733 434.518 228.867 433.839 228.864 433.154C228.864 432.832 228.801 432.509 228.801 432.259L228.855 432.25Z" fill="#E44233"/>
<path d="M148.277 437.271L155.635 321.762L145.311 319.972L137.764 436.438C137.737 437.689 138.16 438.909 138.958 439.874C139.756 440.839 140.874 441.486 142.109 441.696C143.345 441.907 144.615 441.667 145.687 441.02C146.76 440.374 147.565 439.364 147.954 438.174C148.082 437.893 148.149 437.588 148.152 437.279L148.277 437.271Z" fill="#E44233"/>
<path d="M89.7637 434.827L120.925 309.072L112.214 301.286L79.6365 432.187C79.4227 433.294 79.5682 434.441 80.0517 435.46C80.5353 436.478 81.3317 437.317 82.3251 437.852C83.5405 438.496 84.9617 438.634 86.2783 438.235C87.5948 437.836 88.6996 436.932 89.3514 435.722C89.4858 435.472 89.6113 435.15 89.7457 434.89L89.7637 434.827Z" fill="#E44233"/>
<path d="M117.564 322.72L108.02 318.245L112.214 301.242L120.925 309.027L117.564 322.72Z" fill="#000850"/>
<path d="M154.793 334.318L144.406 332.528L145.248 319.847L155.572 321.637L154.793 334.318Z" fill="#000850"/>
<path d="M193.697 336.824L203.959 334.506L201.18 323.767L190.793 322.317L190.282 325.279L193.697 336.824Z" fill="#000850"/>
<path d="M107.5 210.818C107.5 210.818 88.4732 229.164 89.8265 259.144C91.1798 289.124 114.409 304.669 114.409 304.669C114.409 304.669 130.281 321.476 173.245 325.333C210.734 328.689 241.76 307.497 241.76 307.497L224.598 272.729L107.5 210.818Z" fill="#E44233"/>
<path d="M347.298 348.207L350.73 352.593L353.571 356.271C353.571 356.271 360.84 351.796 364.191 348.44C366.468 346.122 366.145 342.543 366.145 342.543C364.882 341.661 363.67 340.708 362.515 339.688C361.44 338.685 360.517 336.019 360.517 336.019L347.298 348.207Z" fill="#FFA79C"/>
<path d="M225.504 296.257L235.891 295.747L238.991 302.011C238.991 302.011 252.255 341.603 257.552 354.928C263.288 369.354 275.646 415.488 275.646 415.488L327.465 403.952C327.465 403.952 311.683 360.432 304.28 342.614C296.877 324.796 286.589 301.537 286.589 301.537L280.979 270.957L256.718 257.632L229.626 270.957L220.592 284.864L225.504 296.257Z" fill="#331C6A"/>
<path d="M281.875 238.892L222.026 250.24L210.519 249.416L193.867 247.904L157.356 247.966L140.193 245.201L121.74 254.857C121.74 254.857 121.875 261.363 124.581 265.543C126.58 268.702 130.452 271.217 132.71 272.819C148.259 283.96 202.068 304.955 202.068 304.955L225.548 296.257C225.548 296.257 241.097 274.304 249.101 270.957C260.455 266.187 267.804 270.635 271.165 275.136C275.422 280.936 286.643 301.537 286.643 301.537L315.321 329.995L341.562 356.271L370.537 331.83C370.537 331.83 342.548 294.771 328.083 280.479C315.734 268.272 281.839 238.892 281.839 238.892" fill="#000850"/>
<path d="M117.636 238.892C117.636 238.892 118.084 246.356 118.989 249.577C119.491 251.492 120.409 253.273 121.678 254.795C121.678 254.795 129.681 259.43 142.649 260.263C152.328 260.907 167.555 254.338 167.555 254.338L117.636 238.892Z" fill="white"/>
<path d="M209.972 203.354C211.375 205.682 213.041 207.841 214.937 209.789C218.038 213.002 225.118 219.57 225.118 219.57L237.763 190.539L231.266 176.695L205.097 194.781L209.972 203.354Z" fill="#FFA79C"/>
<path d="M195.893 247.519C194.577 246.492 193.498 245.195 192.729 243.716L204.532 240.691C202.67 239.465 200.574 238.638 198.376 238.263C196.178 237.887 193.925 237.97 191.761 238.507C189.67 239.259 187.68 240.266 185.837 241.505C184.735 241.049 167.259 233.827 157.893 230.713C153.762 229.299 141.959 220.287 141.959 220.287C141.959 220.287 136.859 216.358 136.017 214.487C135.175 212.617 135.309 208.223 135.569 206.12C135.892 203.283 136.922 197.618 137.567 194.853C138.275 191.756 140.991 182.619 140.991 182.619L127.808 182.556L110.601 177.786C110.601 177.786 107.634 194.531 107.374 202.773C107.052 213.78 108.602 220.797 110.601 226.462C112.339 231.482 115.7 238.758 123.147 243.787C131.118 248.925 140.106 252.283 149.496 253.632C166.156 255.77 185.981 252.799 185.981 252.799C188.566 253.743 191.294 254.242 194.046 254.276C198.527 254.213 204.801 248.996 204.801 248.996C204.801 248.996 197.183 248.352 195.893 247.519Z" fill="#FFA79C"/>
<path d="M111.246 173.858L110.663 177.724C110.663 177.724 121.185 181.393 124.796 182.1C132.02 183.451 141.053 182.619 141.053 182.619L145.633 180.829L111.246 173.858Z" fill="#000850"/>
<path d="M111.246 173.858C111.246 173.858 116.533 140.889 132.665 127.948C146.798 116.681 170.019 118.999 170.019 118.999L180.218 120.547C180.218 120.547 201.037 123.106 208.655 132.834C222.949 149.05 231.266 176.686 231.266 176.686L205.097 194.772L202.919 187.246C202.919 187.246 203.313 198.316 203.564 201.985C203.824 205.082 204.084 210.612 204.667 213.19C205.634 217.441 214.211 228.905 214.211 228.905L193.598 238.105C192.275 238.374 190.979 238.763 189.727 239.268C188.759 239.787 185.918 241.523 185.918 241.523L169.786 235.787C169.786 235.787 161.371 232.252 157.956 230.766C152.579 228.448 142.022 220.34 142.022 220.34C142.022 220.34 142.47 205.01 142.99 199.99C143.698 193.358 146.279 181.125 146.279 181.125C146.279 181.125 131.76 180.74 126.921 180.23C121.175 179.717 115.716 177.498 111.246 173.858Z" fill="white"/>
<path d="M171.077 109.539C168.986 108.948 167.056 107.892 165.431 106.452C164.546 105.648 163.893 104.622 163.538 103.482C163.184 102.341 163.141 101.126 163.414 99.9635L166.354 94.8714C166.354 94.8714 163.665 92.473 164.812 89.6182C165.968 86.9334 169.222 86.9334 169.222 86.9334C169.222 86.9334 167.823 82.3066 171.847 79.774C176.024 77.1518 180.585 79.774 180.585 79.774C180.585 79.774 185.066 76.1406 188.786 76.5343C195.131 77.2234 195.955 81.707 195.955 81.707C195.955 81.707 201.064 79.3086 203.77 80.9284C207.355 83.0942 205.563 86.9513 205.563 86.9513C205.563 86.9513 207.965 92.3209 204.093 95.6768C202.841 96.7087 201.351 97.4127 199.758 97.7252C198.165 98.0377 196.519 97.9488 194.97 97.4667L171.077 109.539Z" fill="#000850"/>
<path d="M176.597 117.522L180.084 121.701C180.084 121.701 180.218 120.413 180.281 119.965C180.344 119.518 180.406 118.479 180.406 118.479L177.377 117.325L176.597 117.522Z" fill="#321D6A"/>
<path d="M183.068 119.804C183.068 119.804 182.674 126.212 181.903 128.914C181.598 129.917 179.429 131.232 178.425 131.232C167.985 131.232 164.884 123.661 164.884 123.661L171.31 109.074L173.702 102.433C173.702 102.433 171.91 101.538 172.546 97.4933C172.699 96.491 173.783 92.0163 177.027 92.0163C177.924 92.0163 179.277 94.7011 179.277 94.7011C181.502 95.5819 183.846 96.1307 186.231 96.3299C188.4 96.482 194.826 96.4015 194.826 96.4015C194.826 96.4015 197.138 113.307 190.488 118.408C187.863 120.421 183.068 119.804 183.068 119.804Z" fill="#FFA79C"/>
<path d="M185.882 106.586C185.882 106.586 188.401 108.045 189.333 108.438C190.686 109.065 193.357 108.617 193.357 108.617C193.357 108.617 192.738 112.403 189.933 112.484C189.037 112.484 187.666 111.141 187.146 110.371C186.305 109.29 185.859 107.955 185.882 106.586Z" fill="white"/>
<path d="M190.462 118.417C190.462 118.417 188.92 115.786 187.056 115.481C185.819 115.329 179.886 115.866 177.7 114.935C176.382 114.398 174.679 112.394 173.989 111.159C172.672 108.689 173.676 102.433 173.676 102.433L171.516 108.537C171.516 108.537 171.668 112.931 173.523 115.168C174.454 116.402 175.609 117.45 176.929 118.256C178.237 119.151 183.041 119.884 183.041 119.884C183.041 119.884 184.35 119.956 185.667 119.884C186.293 119.892 186.917 119.814 187.522 119.652C188.075 119.53 188.62 119.374 189.153 119.186C189.631 119.009 190.074 118.748 190.462 118.417Z" fill="#EA8B80"/>
<path d="M143.958 181.653C143.958 181.653 145.75 172.31 146.404 169.222C147.506 164.139 146.942 156.085 146.942 156.085C146.942 156.085 148.86 164.067 148.214 169.992C147.892 172.766 146.279 181.134 146.279 181.134L143.958 181.653Z" fill="#000850"/>
<path d="M204.308 180.167C204.505 171.155 208.655 160.863 208.655 160.863C208.655 160.863 204.416 168.918 203.636 174.761C203.247 177.467 203.008 180.191 202.919 182.923V187.255C202.919 187.255 204.371 192.964 205.097 194.781C206.19 197.466 210.743 204.571 210.743 204.571C210.743 204.571 204.227 183.424 204.308 180.167Z" fill="#000850"/>
<path d="M202.023 304.956C202.023 304.956 210.797 307.98 213.763 308.813C218.925 310.298 224.276 308.428 224.276 308.428C224.276 308.428 230.343 306.047 232.341 305.206C234.017 304.437 238.991 301.993 238.991 301.993L235.89 295.729L225.503 296.239L202.023 304.956Z" fill="#AD3362"/>
<path d="M204.855 249.067L221.954 250.481L281.83 238.847L286.67 231.437L222.474 244.709L192.792 243.671V247.796L200.347 249.729L204.855 249.067Z" fill="#3E2E92"/>
<path d="M222.474 244.754L221.954 250.481L281.83 238.847L286.669 231.437L222.474 244.754Z" fill="#311E70"/>
<path d="M192.792 243.716L223.702 235.795L222.474 244.745L192.792 243.716Z" fill="#7DB6F9"/>
<path d="M222.259 244.861L228.147 186.539L293.696 174.502L286.67 231.482L222.259 244.861Z" fill="#03A0E8"/>
<path d="M260.151 214.532C262.248 214.702 264.121 212.742 264.327 210.058C264.533 207.373 263.019 205.171 260.922 205.001C258.825 204.831 256.951 206.791 256.745 209.476C256.539 212.161 258.054 214.362 260.151 214.532Z" fill="white"/>
<path d="M331.324 132.619C333.367 132.619 335.363 132.014 337.061 130.881C338.759 129.748 340.082 128.137 340.864 126.253C341.645 124.368 341.849 122.295 341.45 120.295C341.051 118.295 340.066 116.458 338.622 115.016C337.177 113.575 335.336 112.594 333.333 112.197C331.33 111.8 329.254 112.006 327.367 112.787C325.481 113.569 323.869 114.892 322.736 116.588C321.602 118.285 320.998 120.279 321 122.319C321.002 125.051 322.091 127.671 324.027 129.603C325.963 131.534 328.588 132.619 331.324 132.619Z" fill="#FDCB42"/>
<path d="M419.5 416C421.181 416 422.825 415.501 424.223 414.567C425.621 413.633 426.711 412.305 427.354 410.751C427.997 409.197 428.165 407.488 427.836 405.839C427.508 404.19 426.697 402.675 425.508 401.487C424.318 400.299 422.803 399.49 421.154 399.162C419.504 398.835 417.795 399.005 416.242 399.649C414.689 400.294 413.362 401.384 412.429 402.783C411.496 404.182 410.999 405.826 411 407.507C411.002 409.76 411.898 411.921 413.492 413.513C415.086 415.105 417.247 416 419.5 416Z" fill="white"/>
<path d="M333 180.576L381.583 144L383.645 146.381L334.999 182.956L333 180.576Z" fill="#AAD3FF"/>
<path d="M297 96.0921L307.755 64L309.439 64.6443L298.622 96.7454L297 96.0921Z" fill="#AAD3FF"/>
<path d="M1.94456 189.25L1.32617 188.597C2.22238 187.765 90.4003 105.207 155.904 75.8986C182.217 64.1124 213.01 56.774 247.434 54.0803C274.965 51.9324 304.863 52.7289 336.293 56.4608C389.805 62.7879 429.749 75.6212 430.162 75.7554L429.884 76.6503C429.489 76.4803 389.599 63.6828 336.167 57.3468C246.869 46.7598 189.046 62.0362 156.272 76.713C90.9021 105.968 2.82284 188.418 1.94456 189.25Z" fill="white"/>
<path d="M1.93542 168.265L1.33496 167.602C1.98919 167.012 67.2331 108.465 91.0364 90.1195C141.574 51.3512 179.886 44.5766 180.272 44.4782L180.415 45.3731C180.039 45.4358 141.923 52.1925 91.5831 90.8086C67.8067 109.155 2.58965 167.683 1.93542 168.265Z" fill="white"/>
<path d="M2.12341 142.32L1.52295 141.658C2.06964 141.166 56.0124 92.3029 80.0038 74.279C116.444 46.8406 126.302 44.6569 126.705 44.5764L126.884 45.4713C126.786 45.4713 116.686 47.7981 80.5505 75.0039C56.5859 92.992 2.67009 141.828 2.12341 142.32Z" fill="white"/>
<path d="M47.6362 101.811C48.554 101.81 49.4506 101.536 50.2129 101.026C50.9751 100.515 51.5688 99.7906 51.9188 98.9434C52.2688 98.0962 52.3594 97.1644 52.1793 96.2657C51.9991 95.3671 51.5563 94.5419 50.9067 93.8945C50.2571 93.2471 49.4299 92.8064 48.5296 92.6283C47.6293 92.4501 46.6964 92.5425 45.8486 92.8936C45.0008 93.2447 44.2763 93.8389 43.7666 94.601C43.2569 95.3632 42.9849 96.2591 42.9849 97.1756C42.9849 97.7851 43.1052 98.3887 43.3391 98.9517C43.573 99.5147 43.9157 100.026 44.3477 100.457C44.7798 100.887 45.2926 101.229 45.8569 101.461C46.4211 101.693 47.0258 101.813 47.6362 101.811Z" fill="#AAD3FF"/>
<path d="M360.324 92.6191C362.367 92.6191 364.363 92.0143 366.061 90.881C367.759 89.7478 369.082 88.1371 369.864 86.2528C370.645 84.3684 370.849 82.2951 370.45 80.295C370.05 78.2949 369.066 76.4579 367.622 75.0164C366.177 73.575 364.336 72.5938 362.333 72.197C360.33 71.8002 358.254 72.0057 356.367 72.7873C354.481 73.569 352.869 74.8918 351.736 76.5884C350.602 78.285 349.998 80.2791 350 82.3185C350.002 85.0512 351.091 87.6712 353.027 89.6027C354.963 91.5342 357.588 92.6191 360.324 92.6191Z" fill="#AAD3FF"/>
<path d="M301.43 409.787L288.175 374.509L282.825 364.361L277.439 350.364L265.716 314.379L260.115 299.711L250.696 282.591L247.424 280.103L241.294 277.231L241.68 276.416L247.935 279.361L251.431 282.081L260.921 299.335L266.559 314.075L278.29 350.06L283.64 363.994L288.991 374.142L302.272 409.474L301.43 409.787Z" fill="white"/>
<path d="M290.837 418.495L311.091 413.636C311.091 413.636 316.316 418.406 318.87 419.22C323.522 420.715 328.639 420.759 333.613 422.648C339.25 424.786 346.904 433.082 346.904 433.082L290.837 442.953C290.837 442.953 289.161 435.848 290.837 431.4C292.101 427.919 290.837 418.495 290.837 418.495Z" fill="#1B1241"/>
<path d="M311.261 426.549C310.846 426.427 310.471 426.196 310.173 425.882C309.876 425.568 309.667 425.18 309.568 424.759C309.388 424.034 309.568 422.969 311.199 421.538C312.718 420.558 314.413 419.88 316.191 419.542L317.141 419.399C317.49 417.609 318.404 414.521 319.444 413.367C320.815 411.783 322.132 411.318 323.486 411.828C323.834 412 324.137 412.252 324.371 412.563C324.604 412.874 324.761 413.235 324.83 413.617C325.003 414.297 325.018 415.006 324.874 415.692C324.729 416.378 324.429 417.021 323.997 417.573C322.84 419.023 319.677 419.56 317.535 419.873C317.546 419.998 317.546 420.124 317.535 420.249L317.472 420.687C317.302 422.146 317.033 424.571 315.778 425.69C315.308 426.149 314.737 426.492 314.111 426.692C313.173 426.971 312.167 426.921 311.261 426.549ZM316.289 420.231C314.588 420.52 312.965 421.157 311.521 422.101C310.356 423.041 309.872 423.972 310.034 424.786C310.132 425.113 310.309 425.41 310.55 425.652C310.791 425.894 311.087 426.073 311.414 426.173C312.091 426.429 312.827 426.49 313.537 426.347C314.247 426.205 314.903 425.865 315.429 425.368C316.531 424.392 316.782 422.084 316.961 420.67L317.033 420.231C317.033 420.168 317.033 420.079 317.033 420.016C316.773 420.038 316.52 420.111 316.289 420.231ZM319.874 413.841C318.978 414.844 318.082 417.573 317.696 419.461C319.793 419.166 322.661 418.674 323.656 417.367C324.037 416.878 324.299 416.308 324.422 415.701C324.544 415.094 324.525 414.466 324.364 413.868C324.306 413.568 324.184 413.284 324.006 413.035C323.829 412.786 323.599 412.579 323.333 412.427C322.204 411.962 321.057 412.427 319.892 413.841H319.874Z" fill="white"/>
<path d="M329.159 421.377L328.191 424.84L330.315 425.153L331.274 421.896L329.159 421.377Z" fill="white"/>
<path d="M325.789 420.759L324.893 424.339L326.927 424.715L327.752 421.198L325.789 420.759Z" fill="white"/>
<path d="M322.115 419.864L321.102 423.73L323.235 424.169L324.023 420.321L322.115 419.864Z" fill="white"/>
<path d="M290.792 442.944L291.706 447.097L348.167 437.226L346.859 433.073L290.792 442.944Z" fill="#7DB6F9"/>
<path d="M290.837 431.4L304.755 440.501L290.837 442.953C290.837 442.953 289.985 439.463 289.851 437.951C289.655 435.72 289.993 433.474 290.837 431.4Z" fill="#FDCB42"/>
<path d="M350.587 354.284L367.015 341.531C367.015 341.531 373.745 343.724 376.416 343.42C381.264 342.874 385.952 340.815 391.257 340.484C397.28 340.117 407.676 344.538 407.676 344.538L360.643 376.568C360.643 376.568 356.162 370.778 355.875 366.034C355.669 362.338 350.587 354.284 350.587 354.284Z" fill="#1B1241"/>
<path d="M372.562 353.21C372.139 353.269 371.708 353.218 371.31 353.061C370.913 352.904 370.563 352.647 370.295 352.315C369.838 351.724 369.542 350.659 370.456 348.735C371.439 347.217 372.705 345.902 374.184 344.86L374.991 344.341C374.561 342.551 374.14 339.383 374.606 337.898C375.206 335.893 376.21 334.927 377.653 334.837C378.036 334.85 378.411 334.951 378.748 335.133C379.086 335.314 379.376 335.572 379.598 335.884C380.043 336.428 380.355 337.067 380.511 337.752C380.666 338.437 380.66 339.149 380.494 339.831C380.046 341.621 377.375 343.411 375.556 344.583C375.605 344.698 375.644 344.818 375.672 344.941L375.798 345.37C376.246 346.758 376.998 349.084 376.308 350.624C376.073 351.235 375.695 351.781 375.206 352.217C374.465 352.84 373.531 353.191 372.562 353.21ZM374.543 345.379C373.107 346.343 371.887 347.592 370.958 349.049C370.286 350.382 370.232 351.429 370.716 352.127C370.937 352.377 371.216 352.571 371.528 352.691C371.84 352.811 372.176 352.854 372.509 352.816C373.231 352.772 373.926 352.525 374.514 352.104C375.103 351.683 375.56 351.105 375.833 350.436C376.434 349.102 375.717 346.856 375.296 345.532L375.179 345.102C375.179 345.03 375.116 344.959 375.125 344.887C374.902 345.013 374.704 345.18 374.543 345.379ZM375.188 338.077C374.803 339.357 375.108 342.211 375.529 344.1C377.321 342.963 379.723 341.343 380.09 339.741C380.238 339.14 380.243 338.512 380.106 337.908C379.97 337.304 379.694 336.74 379.302 336.26C379.126 336.009 378.898 335.8 378.634 335.645C378.369 335.491 378.074 335.395 377.769 335.365C376.532 335.41 375.672 336.314 375.188 338.077Z" fill="white"/>
<path d="M386.731 341.111L387.278 344.69L389.348 344.109L388.873 340.744L386.731 341.111Z" fill="white"/>
<path d="M383.433 342.005L384.034 345.585L386.05 345.093L385.351 341.513L383.433 342.005Z" fill="white"/>
<path d="M379.705 342.677L380.386 346.623L382.51 346.14L381.614 342.31L379.705 342.677Z" fill="white"/>
<path d="M360.66 376.568L363.206 379.968L410.597 347.778L407.702 344.529L360.66 376.568Z" fill="#7DB6F9"/>
<path d="M355.902 366.034L372.338 368.62L360.687 376.567C360.687 376.567 358.474 373.739 357.721 372.415C356.616 370.462 355.993 368.275 355.902 366.034Z" fill="#FDCB42"/>
<path d="M354.996 344.941L296.617 278.868C289.044 270.358 268.494 248.271 264.354 248.271C261.244 248.271 225.387 256.397 223.845 256.746L166.945 283.728L152.283 280.005C152.167 280.005 149.344 279.217 145.275 273.74C142.837 270.447 138.706 260.227 138.526 259.788L139.36 259.457C139.405 259.565 143.626 270.009 145.992 273.203C149.837 278.394 152.48 279.146 152.507 279.155L166.847 282.797L223.621 255.887C225.154 255.538 261.119 247.376 264.381 247.376C269.677 247.376 294.502 275.119 297.316 278.278L355.695 344.35L354.996 344.941Z" fill="white"/>
<path d="M188.669 99.3282C187.66 99.0085 186.598 98.884 185.542 98.9613C185.067 99.0239 183.57 99.5072 182.996 99.6325L182.656 98.5586C182.898 98.5586 184.672 97.8516 185.389 97.7621C186.624 97.7105 187.859 97.8433 189.055 98.1558L188.669 99.3282Z" fill="#5F000F"/>
<path d="M194.943 100.492C194.412 100.269 193.863 100.093 193.302 99.9636L193.527 98.997C194.001 99.0986 194.469 99.2331 194.925 99.3998L194.943 100.492Z" fill="#5F000F"/>
<path d="M190.462 104.286L193.258 104.554L191.08 98.8893L191.896 98.5224L194.584 105.574L190.426 105.19L190.462 104.286Z" fill="#5F000F"/>
<path d="M191.358 109.539C190.875 109.538 190.395 109.484 189.924 109.378C188.642 109.101 186.196 107.257 185.891 107.034L185.819 106.228C187.155 107.155 188.596 107.921 190.112 108.51C191.214 108.785 192.373 108.72 193.437 108.322L193.294 109.101C192.717 109.463 192.034 109.617 191.358 109.539Z" fill="#5F000F"/>
<ellipse cx="320" cy="451.5" rx="27" ry="2.5" fill="#000850"/>
</g>
<defs>
<clipPath id="clip0_17713_44041">
<rect width="491" height="494" fill="white" transform="translate(-19)"/>
</clipPath>
</defs>
</svg>
