<svg width="21" height="22" viewBox="0 0 21 22" fill="none" xmlns="http://www.w3.org/2000/svg">
<path d="M8.75 16.25C10.3652 16.25 11.8501 15.6944 13.0349 14.773L16.8814 18.6195L18.1186 17.3822L14.2721 13.5357C15.1944 12.3501 15.75 10.8652 15.75 9.25C15.75 5.39037 12.6096 2.25 8.75 2.25C4.89038 2.25 1.75 5.39037 1.75 9.25C1.75 13.1096 4.89038 16.25 8.75 16.25ZM8.75 4C11.6454 4 14 6.35462 14 9.25C14 12.1454 11.6454 14.5 8.75 14.5C5.85462 14.5 3.5 12.1454 3.5 9.25C3.5 6.35462 5.85462 4 8.75 4Z" fill="#6F7D97"/>
</svg>
