<svg width="24" height="24" viewBox="0 0 24 24" fill="none" xmlns="http://www.w3.org/2000/svg">
<path d="M12.0673 5.30484C12.0673 5.30484 19.9539 11.8483 19.9539 12.5154V18.7895C19.9539 19.4566 19.4131 19.9977 18.7458 19.9977H14.5076V16.2519C14.5076 15.3807 13.8014 14.6747 12.9302 14.6747H11.1559C10.2849 14.6747 9.57852 15.3807 9.57852 16.2519V19.9977H5.25706C4.59 19.9977 4.04919 19.4566 4.04919 18.7895V12.5154C4.04924 11.8483 12.0673 5.30484 12.0673 5.30484Z" fill="#E5AA17"/>
<path d="M2.2873 12.1392L11.4742 4.2021C11.8213 3.90235 12.3453 3.94047 12.645 4.28732C12.9447 4.63458 12.9064 5.15862 12.5594 5.45816L3.37251 13.3952C3.0255 13.6948 2.50152 13.6564 2.20192 13.3096C1.90218 12.9625 1.9404 12.4387 2.2873 12.1392Z" fill="#C69422"/>
<path d="M11.355 4.28729C11.6545 3.94044 12.1784 3.90232 12.5254 4.20207L21.7126 12.1392C22.0595 12.4388 22.0977 12.9626 21.7981 13.3097C21.4985 13.6565 20.9745 13.6948 20.6275 13.3952L11.4404 5.45823C11.0934 5.15859 11.0552 4.6346 11.355 4.28729Z" fill="#C69422"/>
</svg>
